<svg width="40" height="40" viewBox="0 0 40 40" fill="none" xmlns="http://www.w3.org/2000/svg">
<path d="M36.9256 27C36.9256 28.5125 36.2256 29.85 35.1506 30.725C34.3131 31.4125 33.2506 31.8125 32.1006 31.8125C30.9506 31.8125 29.8881 31.4 29.0506 30.725C27.9756 29.8375 27.2881 28.5 27.2881 27C27.2881 24.3375 29.4506 22.1875 32.1006 22.1875C34.7631 22.1875 36.9256 24.3375 36.9256 27Z" fill="#F5BCD0"/>
<path d="M32.0998 34.0625C31.0423 34.0625 30.0036 33.7975 29.0498 33.34V37.5L32.0998 35.3375L35.1498 37.5V33.345C34.2036 33.7987 33.1661 34.0625 32.0998 34.0625Z" fill="#F5BCD0"/>
<path d="M30.7252 2.5H7.8877C5.2377 2.5 3.0752 4.65 3.0752 7.3125V32.6875C3.0752 35.345 5.2302 37.5 7.8877 37.5H26.8002V31.65C25.6714 30.36 25.0377 28.725 25.0377 27.0012C25.0377 23.1063 28.2064 19.9388 32.1002 19.9388C33.3477 19.9388 34.5189 20.265 35.5377 20.8337V7.3125C35.5377 4.655 33.3827 2.5 30.7252 2.5ZM21.1052 29.2H10.2677C9.64644 29.2 9.1427 28.6962 9.1427 28.075C9.1427 27.4537 9.64644 26.95 10.2677 26.95H21.1052C21.7264 26.95 22.2302 27.4537 22.2302 28.075C22.2302 28.6962 21.7264 29.2 21.1052 29.2ZM23.9814 21.125H10.2677C9.64644 21.125 9.1427 20.6213 9.1427 20C9.1427 19.3787 9.64644 18.875 10.2677 18.875H23.9802C24.6014 18.875 25.1052 19.3787 25.1052 20C25.1052 20.6213 24.6027 21.125 23.9814 21.125ZM28.3552 13.045H10.2727C9.65145 13.045 9.1477 12.5413 9.1477 11.92C9.1477 11.2987 9.65145 10.795 10.2727 10.795H28.3539C28.9752 10.795 29.4789 11.2987 29.4789 11.92C29.4789 12.5413 28.9764 13.045 28.3552 13.045Z" fill="#F5BCD0"/>
</svg>
