<svg width="36" height="28" viewBox="0 0 36 28" fill="none" xmlns="http://www.w3.org/2000/svg">
<path d="M19.1594 0.48626L34.3557 9.31626C34.9469 9.66001 34.9469 10.5125 34.3557 10.8563L19.1594 19.6863C18.2257 20.2288 17.0732 20.2288 16.1407 19.6863L0.944414 10.8563C0.353164 10.5125 0.353164 9.66001 0.944414 9.31626L16.1407 0.48626C17.0732 -0.0549902 18.2257 -0.0549902 19.1594 0.48626Z" fill="#AAA9DB"/>
<path d="M19.1594 0.48626L34.3557 9.31626C34.9469 9.66001 34.9469 10.5125 34.3557 10.8563L19.1594 19.6863C18.2257 20.2288 17.0732 20.2288 16.1407 19.6863L0.944414 10.8563C0.353164 10.5125 0.353164 9.66001 0.944414 9.31626L16.1407 0.48626C17.0732 -0.0549902 18.2257 -0.0549902 19.1594 0.48626Z" fill="#AAA9DB"/>
<path d="M34.3502 10.8625L29.1877 13.8625L19.1627 19.6875C18.2252 20.225 17.0752 20.225 16.1377 19.6875L6.1127 13.8625L0.937695 10.8625C0.350195 10.5125 0.350195 9.66248 0.937695 9.31248L16.1377 0.487476C17.0752 -0.0500244 18.2252 -0.0500244 19.1627 0.487476L34.3502 9.31248C34.9502 9.66248 34.9502 10.5125 34.3502 10.8625Z" fill="#AAA9DB"/>
<path d="M20.1048 21.3088C19.3511 21.74 18.5061 21.9662 17.6498 21.9662C16.7936 21.9662 15.9486 21.74 15.2048 21.315L6.1123 16.0312V20.725C6.1123 21.775 6.6623 22.7375 7.5748 23.2625L13.9123 26.925C16.2248 28.25 19.0748 28.25 21.3748 26.925L27.7248 23.2625C28.6248 22.7375 29.1873 21.775 29.1873 20.725V16.0312L20.1048 21.3088Z" fill="#AAA9DB"/>
<path d="M34.6255 22.3837V12.8712L32.3743 14.1787V22.3825C31.8455 22.7425 31.498 23.3487 31.498 24.0362C31.498 25.1412 32.3943 26.0375 33.4993 26.0375C34.6043 26.0375 35.5005 25.1425 35.5005 24.0375C35.5005 23.35 35.153 22.745 34.6255 22.3837Z" fill="#AAA9DB"/>
</svg>
