<svg width="48" height="35" viewBox="0 0 48 35" fill="none" xmlns="http://www.w3.org/2000/svg">
<path d="M21.6693 0L22.9859 2.24922C17.8657 4.95559 14.4096 7.36938 12.6176 9.4906C11.4472 10.9169 10.8621 12.2701 10.8621 13.5502C10.8621 14.8302 11.7947 16.348 13.6599 18.1034C15.5617 19.8589 16.8417 21.3767 17.5 22.6567C17.9754 23.5711 18.2132 24.6317 18.2132 25.8386C18.2132 28.2889 17.3354 30.3918 15.5799 32.1473C13.8245 33.9028 11.6484 34.7806 9.05172 34.7806C6.49164 34.7806 4.33386 33.848 2.57837 31.9828C0.859457 30.081 0 27.6672 0 24.7414C0 20.2064 1.38976 16.1285 4.16928 12.5078C7.86311 7.7534 13.6964 3.58412 21.6693 0ZM45.8621 0L47.2335 2.41379C42.0037 5.15674 38.5658 7.51567 36.9201 9.4906C35.7863 10.8804 35.2194 12.2884 35.2194 13.7147C35.2194 15.0313 36.2252 16.604 38.2367 18.4326C41.0528 20.9561 42.4608 23.4431 42.4608 25.8934C42.4608 28.3438 41.5648 30.4833 39.7727 32.3119C38.0172 34.104 35.9326 35 33.5188 35C31.0319 35 28.8558 34.0125 26.9906 32.0376C25.1254 30.0261 24.1928 27.5758 24.1928 24.6865C24.1928 20.1515 25.7288 15.9457 28.8009 12.069C32.6776 7.09509 38.3647 3.0721 45.8621 0Z" fill="#EDF6FC"/>
</svg>
