<svg width="66" height="70" viewBox="0 0 66 70" fill="none" xmlns="http://www.w3.org/2000/svg">
<path d="M50.3921 6.71767L34.9375 19.9295H32.4349C31.691 20.2143 30.8847 20.3717 30.0421 20.3717C29.1559 20.3717 28.3079 20.1966 27.5298 19.8809C27.4914 19.8654 27.4528 19.8504 27.4149 19.8342C25.0218 18.8115 23.3258 16.4368 23.3258 13.6552C23.3258 13.1648 23.38 12.6868 23.4804 12.226L17.8922 1.33604C17.2728 0.128428 15.7911 -0.34805 14.5841 0.27155C13.3766 0.891151 12.9 2.37237 13.5196 3.57984L23.4075 22.8491V23.144L20.2546 47.7451C20.1097 48.5816 20.7571 49.345 21.5997 49.345H23.5078V67.0503C23.5078 68.6789 24.828 69.9992 26.4566 69.9992C28.0852 69.9992 29.4055 68.6789 29.4055 67.0503V49.3451H32.8858L40.7731 68.189C41.4048 69.6981 43.1361 70.3968 44.6319 69.7706C46.1342 69.1418 46.8423 67.4142 46.2136 65.9118L39.2795 49.3451H40.8427C41.688 49.3451 42.333 48.5828 42.1878 47.7452L36.6522 24.9806L53.5857 10.4534C54.6173 9.57146 54.7386 8.02033 53.8568 6.98867C52.9751 5.95715 51.4237 5.83573 50.3921 6.71767Z" fill="#8AC6E8"/>
<path d="M30.0423 18.7483C32.8551 18.7483 35.1353 16.4681 35.1353 13.6552C35.1353 10.8424 32.8551 8.56219 30.0423 8.56219C27.2295 8.56219 24.9492 10.8424 24.9492 13.6552C24.9492 16.4681 27.2295 18.7483 30.0423 18.7483Z" fill="#8AC6E8"/>
<path d="M38.7343 10.5968C39.6207 10.5968 40.7401 10.1418 40.5806 9.36007V3.47655L45.0006 1.92954V6.67125C44.1216 6.60065 42.8866 6.96601 42.8866 7.76307C42.8866 8.37237 43.72 8.86629 44.7479 8.86629C45.7759 8.86629 46.6092 8.37237 46.6092 7.76307H46.6375V0.924252C46.6375 0.288169 46.0094 -0.157542 45.4089 0.0526086L39.6001 2.08571C39.207 2.2232 38.9438 2.59419 38.9438 3.01065V8.39791C38.0826 8.3405 36.873 8.70696 36.873 9.49372C36.873 10.1029 37.7064 10.5968 38.7343 10.5968Z" fill="#8AC6E8"/>
<path d="M57.4662 23.1572V29.2398C56.6052 29.1823 55.3955 29.5488 55.3955 30.3356C55.3955 30.9449 56.2288 31.4388 57.2568 31.4388C58.1431 31.4388 59.2625 30.9837 59.1031 30.202V24.3184L60.3865 23.8692C61.2397 23.5706 61.6893 22.6368 61.3906 21.7837L57.4662 23.1572Z" fill="#8AC6E8"/>
<path d="M3.54242 12.884V18.9664C2.68121 18.9093 1.47168 19.2755 1.47168 20.0622C1.47168 20.6715 2.305 21.1654 3.33295 21.1654C4.21929 21.1654 5.33858 20.7104 5.17926 19.9287V14.0452L6.46268 13.596C7.31592 13.2974 7.76548 12.3637 7.46687 11.5105L3.54242 12.884Z" fill="#8AC6E8"/>
<path d="M57.9387 3.50416C58.437 3.77584 58.8469 4.18571 59.1185 4.68402C59.2238 4.87701 59.5026 4.87701 59.6078 4.68402C59.8795 4.18584 60.2893 3.77584 60.7877 3.50416C60.9806 3.39895 60.9806 3.12012 60.7877 3.01491C60.2893 2.74336 59.8793 2.33336 59.6078 1.83504C59.5026 1.64206 59.2238 1.64206 59.1185 1.83504C58.8469 2.33322 58.437 2.74336 57.9387 3.01491C57.7457 3.11998 57.7457 3.39895 57.9387 3.50416Z" fill="#8AC6E8"/>
<path d="M1.85096 11.2263C2.12251 10.728 2.53251 10.318 3.03083 10.0464C3.22381 9.94121 3.22381 9.66239 3.03083 9.55717C2.53251 9.28549 2.12251 8.87563 1.85096 8.37731C1.74575 8.18433 1.46692 8.18433 1.36171 8.37731C1.09002 8.87549 0.680163 9.28549 0.181845 9.55717C-0.0111359 9.66239 -0.0111359 9.94121 0.181845 10.0464C0.680163 10.318 1.09016 10.728 1.36171 11.2263C1.46692 11.4193 1.74575 11.4193 1.85096 11.2263Z" fill="#8AC6E8"/>
<path d="M64.032 9.49921C63.6418 9.28659 63.3208 8.96546 63.108 8.57524C63.0256 8.42415 62.8072 8.42415 62.7248 8.57524C62.512 8.96546 62.191 9.28659 61.8008 9.49921C61.6497 9.58162 61.6497 9.80002 61.8008 9.88243C62.191 10.0952 62.512 10.4162 62.7248 10.8064C62.8072 10.9575 63.0256 10.9575 63.108 10.8064C63.3208 10.4162 63.6418 10.0952 64.032 9.88243C64.1831 9.80002 64.1831 9.58162 64.032 9.49921Z" fill="#8AC6E8"/>
<path d="M9.20079 6.13777C8.81057 5.92515 8.48957 5.60402 8.27681 5.2138C8.1944 5.06271 7.97601 5.06271 7.89374 5.2138C7.68098 5.60402 7.35998 5.92515 6.96976 6.13777C6.81867 6.22018 6.81867 6.43857 6.96976 6.52099C7.35998 6.73375 7.68098 7.05474 7.89374 7.44496C7.97615 7.59605 8.19454 7.59605 8.27681 7.44496C8.48957 7.05474 8.81057 6.73375 9.20079 6.52099C9.35188 6.43857 9.35188 6.22018 9.20079 6.13777Z" fill="#8AC6E8"/>
<path d="M65.881 4.16386C65.603 4.01236 65.3743 3.78367 65.2228 3.50567C65.1642 3.39798 65.0085 3.39798 64.9499 3.50567C64.7984 3.78353 64.5697 4.01223 64.2917 4.16386C64.184 4.22251 64.184 4.37813 64.2917 4.43678C64.5696 4.58829 64.7984 4.81698 64.9499 5.09498C65.0085 5.20267 65.1642 5.20267 65.2228 5.09498C65.3743 4.81712 65.603 4.58829 65.881 4.43678C65.9887 4.378 65.9887 4.22251 65.881 4.16386Z" fill="#8AC6E8"/>
<path d="M1.76132 4.27759C2.03933 4.42909 2.26802 4.65779 2.41952 4.93579C2.47817 5.04348 2.63379 5.04348 2.69244 4.93579C2.84394 4.65792 3.07264 4.42923 3.35064 4.27759C3.45832 4.21894 3.45832 4.06332 3.35064 4.00467C3.07264 3.85317 2.84394 3.62448 2.69244 3.34648C2.63379 3.23893 2.47817 3.23893 2.41952 3.34648C2.26802 3.62448 2.03933 3.85317 1.76132 4.00467C1.65378 4.06332 1.65378 4.21894 1.76132 4.27759Z" fill="#8AC6E8"/>
</svg>
