<svg width="60" height="60" viewBox="0 0 60 60" fill="none" xmlns="http://www.w3.org/2000/svg">
<path d="M19.0499 41.0465L19.9311 40.0563C19.2873 37.9986 19.2855 35.7333 19.9733 33.6415C14.9085 36.4241 8.49639 35.3153 4.66872 30.788C1.82577 33.0427 0 36.5266 0 40.4289V58.0069C0 58.9773 0.787495 59.7647 1.7578 59.7647H16.2397C16.044 59.2151 15.9374 58.6234 15.9374 58.0069V49.2179C15.9374 46.2039 17.0425 43.3012 19.0499 41.0465Z" fill="#AAA9DB"/>
<path d="M14.0624 31.6399C18.9165 31.6399 22.8515 27.705 22.8515 22.8509C22.8515 17.9969 18.9165 14.0619 14.0624 14.0619C9.20841 14.0619 5.27344 17.9969 5.27344 22.8509C5.27344 27.705 9.20841 31.6399 14.0624 31.6399Z" fill="#AAA9DB"/>
<path d="M55.3319 30.788C51.4973 35.3235 45.0808 36.4201 40.0273 33.6403C40.7141 35.7363 40.7142 37.9958 40.0695 40.0563L40.9508 41.0465C42.9582 43.3012 44.0633 46.2039 44.0633 49.2179V58.0069C44.0633 58.6234 43.9566 59.2151 43.7609 59.7647H58.2429C59.2132 59.7647 60.0007 58.9773 60.0007 58.0069V40.4289C60.0007 36.5266 58.1749 33.0427 55.3319 30.788Z" fill="#AAA9DB"/>
<path d="M45.9374 31.6399C50.7915 31.6399 54.7265 27.705 54.7265 22.8509C54.7265 17.9969 50.7915 14.0619 45.9374 14.0619C41.0834 14.0619 37.1484 17.9969 37.1484 22.8509C37.1484 27.705 41.0834 31.6399 45.9374 31.6399Z" fill="#AAA9DB"/>
<path d="M29.9999 47.4601C26.6203 47.4601 23.6074 45.8629 21.6762 43.3832C20.2934 44.9371 19.4531 46.9809 19.4531 49.218V58.007C19.4531 58.9773 20.2406 59.7648 21.2109 59.7648H38.7889C39.7593 59.7648 40.5467 58.9773 40.5467 58.007V49.218C40.5467 46.9809 39.7065 44.9371 38.3237 43.3832C36.3925 45.8629 33.3796 47.4601 29.9999 47.4601Z" fill="#AAA9DB"/>
<path d="M30 43.9445C33.8832 43.9445 37.0312 40.7966 37.0312 36.9133C37.0312 33.0301 33.8832 29.8821 30 29.8821C26.1167 29.8821 22.9688 33.0301 22.9688 36.9133C22.9688 40.7966 26.1167 43.9445 30 43.9445Z" fill="#AAA9DB"/>
<path d="M24.9983 14.1784C27.0052 16.0332 28.9947 17.2651 29.0784 17.3167C29.6436 17.6645 30.3562 17.6645 30.9214 17.3167C31.0052 17.2651 32.9945 16.0332 35.0015 14.1784C37.9035 11.4965 39.3749 8.88917 39.3749 6.42907C39.3749 0.842079 33.8191 -1.78044 29.9999 1.32325C26.1723 -1.78736 20.625 0.856844 20.625 6.42907C20.625 8.88917 22.0964 11.4965 24.9983 14.1784Z" fill="#AAA9DB"/>
</svg>
