<svg width="70" height="70" viewBox="0 0 70 70" fill="none" xmlns="http://www.w3.org/2000/svg">
<path d="M44.9613 31.575C44.8738 28.1858 43.9045 24.8779 42.1488 21.9775C41.262 20.6075 40.1783 19.3755 38.9326 18.3212C36.0422 15.9668 32.7015 14.2275 29.1151 13.21C28.7378 15.7514 28.6958 18.3314 28.9901 20.8837C32.7445 21.4588 36.2884 22.988 39.2826 25.325C39.4788 25.4862 39.6576 25.6637 39.8413 25.825C39.9157 25.8782 39.9837 25.9399 40.0438 26.0087C42.1057 27.9592 43.7653 30.2949 44.9288 32.8837C44.9301 32.47 44.9401 32.03 44.9613 31.575Z" fill="#8AC6E8"/>
<path d="M48.1589 20.625C49.0489 19.2602 50.1109 18.0158 51.3189 16.9225C50.1279 13.7331 48.4089 10.7667 46.2339 8.1475C44.07 10.7988 42.3683 13.7957 41.2002 17.0125C43.5071 19.1125 45.2321 21.7731 46.2077 24.7362C46.6912 23.2927 47.3463 21.9124 48.1589 20.625Z" fill="#8AC6E8"/>
<path d="M37.6939 27.2575C32.6251 23.0963 25.4626 22.8488 22.5889 22.9413C23.0651 25.79 24.7139 32.7688 29.7626 36.9175C34.8114 41.0663 41.9939 41.3313 44.8676 41.2338C44.3914 38.385 42.7501 31.4063 37.6939 27.2575Z" fill="#8AC6E8"/>
<path d="M62.6575 36.9213C67.7275 32.755 69.36 25.7838 69.8312 22.9388C68.1211 22.8845 66.4096 22.9803 64.7162 23.225C61.0883 23.6529 57.6406 25.0425 54.73 27.25C54.5912 27.3613 54.4662 27.4663 54.3462 27.575C54.3105 27.6159 54.2726 27.6547 54.2325 27.6913C51.0467 30.8231 48.8627 34.8303 47.9575 39.205C47.9575 39.2313 47.9475 39.2588 47.9412 39.285C47.7637 40.035 47.6387 40.6988 47.5537 41.2288C50.4025 41.3338 57.55 41.1075 62.6575 36.9213Z" fill="#8AC6E8"/>
<path d="M1.78125 42.7675C1.42163 42.5966 1.07671 42.3963 0.75 42.1688C0.482325 41.9882 0.231326 41.784 0 41.5588C0.00625 41.375 0.20375 40.9087 1.15625 39.75C3.39696 36.8697 5.31861 33.7548 6.8875 30.46C7.18043 29.9436 7.34544 29.3645 7.36875 28.7712C7.23964 27.5148 6.5738 26.3755 5.5425 25.6462C5.0375 25.1825 4.56125 24.745 4.505 24.3375C4.51329 24.0425 4.57955 23.7519 4.7 23.4825C4.90375 22.9462 5.13875 22.4212 5.375 21.895C5.88527 20.8387 6.29257 19.7357 6.59125 18.6012L6.71625 18.0687C6.97996 16.8178 7.32018 15.5842 7.735 14.375C8.72007 11.6544 10.2457 9.16144 12.22 7.04625C14.6113 4.51875 18.38 2.725 23.425 1.725C27.2875 0.878391 31.2067 0.314811 35.1512 0.0387482C42.225 -0.302502 48.295 1.81125 54.8425 6.93625C56.6451 8.32143 58.1932 10.0095 59.4175 11.925C57.2758 12.7889 55.2448 13.9051 53.3675 15.25C51.8989 11.6072 49.7813 8.26132 47.1175 5.375C46.8824 5.13519 46.5608 5.00005 46.225 5C45.8821 4.98293 45.5503 5.12332 45.3237 5.38125C42.683 8.29239 40.5909 11.6575 39.1488 15.3137C35.9076 13.0039 32.2472 11.3481 28.3725 10.4387C27.7103 10.3031 27.0602 10.7184 26.905 11.3762C26.2901 14.3934 26.13 17.4855 26.43 20.55C24.6323 20.3771 22.8224 20.3717 21.0238 20.5337C20.353 20.6104 19.8643 21.2059 19.92 21.8787C19.955 22.3262 20.9088 32.8887 28.17 38.85C33.3675 43.1175 40.2463 43.7563 43.9012 43.7563C44.7762 43.7563 45.4625 43.72 45.9013 43.6875C46.0019 43.7216 46.1065 43.7426 46.2125 43.75C46.3291 43.7458 46.4445 43.7248 46.555 43.6875C46.9575 43.715 47.5813 43.7475 48.4188 43.7475C50.5139 43.7486 52.6042 43.5456 54.66 43.1413C54.4863 43.4762 54.3225 43.81 54.1787 44.1413C52.4871 47.9971 51.8545 52.2344 52.3462 56.4162C52.6348 59.0693 53.1611 61.6911 53.9188 64.25C54.3301 65.5937 54.8488 66.902 55.47 68.1625C55.7552 68.7286 56.0789 69.2744 56.4388 69.7962L56.5225 69.9212L28.17 70C27.3424 67.0355 25.0255 63.6371 24 62.5C22.9745 61.3629 22.5 60 20.5 60.5C18.5 61 13.5504 62.8146 9.9075 63.69C8.74233 63.9149 7.60707 63.181 7.33375 62.0262C7.06671 61.3151 6.96622 60.5523 7.04 59.7963C7.0725 59.5338 7.1325 59.2737 7.19 59.0125C7.44471 58.1483 7.48206 57.2346 7.29875 56.3525C6.93546 55.2044 6.09038 54.2712 4.98375 53.7962L4.725 53.6475C4.85997 53.375 5.02115 53.1163 5.20625 52.875C5.41688 52.6099 5.51093 52.2706 5.46687 51.9348C5.42281 51.5991 5.24441 51.2956 4.9725 51.0938C4.6725 50.8737 3.965 50.3438 3.4475 49.9263C3.51 49.8175 3.57375 49.6975 3.635 49.5888C3.83125 49.245 4.055 48.845 4.27375 48.3825C4.66931 47.5063 4.78583 46.5297 4.6075 45.585C4.30756 44.0603 2.84684 43.3128 1.78189 42.7678L1.78125 42.7675Z" fill="#8AC6E8"/>
<path d="M52.4577 25.93C52.474 25.9113 52.4915 25.8938 52.509 25.8763L52.524 25.86L52.5515 25.8325C52.749 25.6488 52.9452 25.48 53.1577 25.3113C56.1433 22.978 59.6841 21.4609 63.4327 20.9087C63.7306 18.3482 63.6886 15.7595 63.3077 13.21C59.76 14.217 56.4513 15.9281 53.579 18.2413C52.2946 19.3141 51.177 20.572 50.2627 21.9738C48.5054 24.8779 47.5388 28.1915 47.459 31.585C47.479 32.04 47.4902 32.4875 47.4915 32.9225C48.6612 30.2822 50.3501 27.9042 52.4577 25.93Z" fill="#8AC6E8"/>
</svg>
