<svg width="70" height="70" viewBox="0 0 70 70" fill="none" xmlns="http://www.w3.org/2000/svg">
<g clip-path="url(#clip0_1002_6499)">
<path d="M50.1121 7.99096C48.2354 6.22353 45.8322 5.37466 43.4105 5.37466C40.6844 5.37466 37.9333 6.45027 35.8813 8.50318L34.9996 9.38487L34.1179 8.50284C32.0658 6.45077 29.3147 5.37466 26.5886 5.37466C24.1664 5.37466 21.7644 6.22353 19.8871 7.99096C15.7585 11.8783 15.6848 18.3785 19.666 22.3598L34.9997 37.6933L50.3332 22.3598C54.3145 18.3784 54.2408 11.8781 50.1121 7.99096Z" fill="#F5BCD0"/>
<path d="M29.6254 64.6255L29.6136 49.4327C29.6136 42.0954 25.8553 37.7936 20.8772 36.1733C19.4878 35.7528 18.243 34.6481 17.0853 33.4899C14.9819 31.2993 12.7332 28.3032 9.82032 28.3404L9.81763 28.3293C8.86743 28.3418 7.91739 28.6852 7.09361 29.5089C5.16173 31.4408 5.94225 34.3924 7.60835 36.0585L13.0204 41.47C13.5254 41.975 13.8093 42.6601 13.8093 43.3743C13.8093 44.0887 13.5254 44.7736 13.0204 45.2788L5.70407 37.9628C4.43254 36.6914 3.56852 34.9726 3.33303 33.2476C3.0398 31.0986 3.69863 29.0947 5.18849 27.6048C6.30432 26.489 7.67332 25.8591 9.16654 25.6999L8.07377 21.2862C7.99095 4.90671 0.000673305 6.90777 0.000673305 10.7609L0 39.5159C0 41.3019 0.691821 42.9851 1.94888 44.2553C15.3281 57.7585 13.4661 53.4082 13.4661 64.6255H29.6254Z" fill="#F5BCD0"/>
<path d="M69.9998 10.7611C69.9998 6.90811 62.0095 4.90688 61.9267 21.2865L60.8339 25.7002C62.3271 25.8595 63.6961 26.4892 64.8119 27.6052C66.3018 29.095 66.9608 31.099 66.6674 33.248C66.4321 34.973 65.5681 36.6918 64.2964 37.9631L56.9801 45.2791C56.4751 44.7738 56.1911 44.089 56.1911 43.3747C56.1911 42.6606 56.4751 41.9754 56.9801 41.4704L62.3921 36.0589C64.0582 34.3928 64.8387 31.441 62.9068 29.5093C62.083 28.6855 61.1328 28.3421 60.1828 28.3297L60.1801 28.3408C57.2672 28.3036 55.0185 31.2996 52.9151 33.4902C51.7572 34.6485 50.5125 35.753 49.1233 36.1737C44.1452 37.7938 40.3868 42.0957 40.3868 49.4329L40.375 64.6257H56.5343C56.5343 53.4088 54.6723 57.7588 68.0515 44.2555C69.3088 42.9851 70.0004 41.3019 70.0004 39.5161L69.9998 10.7611Z" fill="#F5BCD0"/>
</g>
<defs>
<clipPath id="clip0_1002_6499">
<rect width="70" height="70" fill="white"/>
</clipPath>
</defs>
</svg>
