<svg width="70" height="70" viewBox="0 0 70 70" fill="none" xmlns="http://www.w3.org/2000/svg">
<g clip-path="url(#clip0_1002_6489)">
<path d="M35 10.0829C33.7925 10.0829 32.8125 9.10292 32.8125 7.89542V2.1875C32.8125 0.98 33.7925 0 35 0C36.2075 0 37.1875 0.98 37.1875 2.1875V7.89542C37.1875 9.10292 36.2075 10.0829 35 10.0829Z" fill="#AAA9DB"/>
<path d="M54.1653 18.0221C53.6053 18.0221 53.0453 17.8092 52.6195 17.3804C51.7649 16.5258 51.7649 15.1404 52.6195 14.2858L56.6561 10.2492C57.5107 9.39458 58.8961 9.39458 59.7507 10.2492C60.6053 11.1038 60.6053 12.4892 59.7507 13.3438L55.714 17.3804C55.2853 17.8063 54.7282 18.0221 54.1653 18.0221Z" fill="#AAA9DB"/>
<path d="M67.8124 37.1875H62.1074C60.8999 37.1875 59.9199 36.2075 59.9199 35C59.9199 33.7925 60.8999 32.8125 62.1074 32.8125H67.8124C69.0199 32.8125 69.9999 33.7925 69.9999 35C69.9999 36.2075 69.0199 37.1875 67.8124 37.1875Z" fill="#AAA9DB"/>
<path d="M58.202 60.3896C57.642 60.3896 57.0819 60.1767 56.6561 59.7479L52.6195 55.7113C51.7649 54.8567 51.7649 53.4713 52.6195 52.6167C53.474 51.7621 54.8594 51.7621 55.714 52.6167L59.7507 56.6533C60.6053 57.5079 60.6053 58.8933 59.7507 59.7479C59.322 60.1767 58.762 60.3896 58.202 60.3896Z" fill="#AAA9DB"/>
<path d="M35 70C33.7925 70 32.8125 69.02 32.8125 67.8125V62.1046C32.8125 60.8971 33.7925 59.9171 35 59.9171C36.2075 59.9171 37.1875 60.8971 37.1875 62.1046V67.8125C37.1875 69.02 36.2075 70 35 70Z" fill="#AAA9DB"/>
<path d="M11.7981 60.3896C11.2381 60.3896 10.6781 60.1767 10.2523 59.7479C9.39768 58.8933 9.39768 57.5079 10.2523 56.6533L14.2889 52.6167C15.1435 51.7621 16.5289 51.7621 17.3835 52.6167C18.2381 53.4713 18.2381 54.8567 17.3835 55.7113L13.3468 59.7479C12.9181 60.1767 12.3581 60.3896 11.7981 60.3896Z" fill="#AAA9DB"/>
<path d="M7.8925 37.1875H2.1875C0.98 37.1875 0 36.2075 0 35C0 33.7925 0.98 32.8125 2.1875 32.8125H7.8925C9.1 32.8125 10.08 33.7925 10.08 35C10.08 36.2075 9.1 37.1875 7.8925 37.1875Z" fill="#AAA9DB"/>
<path d="M15.8348 18.0221C15.2748 18.0221 14.7148 17.8092 14.2889 17.3804L10.2523 13.3438C9.39768 12.4892 9.39768 11.1038 10.2523 10.2492C11.1068 9.39458 12.4923 9.39458 13.3468 10.2492L17.3835 14.2858C18.2381 15.1404 18.2381 16.5258 17.3835 17.3804C16.9518 17.8063 16.3948 18.0221 15.8348 18.0221Z" fill="#AAA9DB"/>
<path d="M32.2041 54C31.9998 54 31.7932 53.9644 31.5937 53.8931C30.8076 53.6057 30.3278 52.8125 30.4395 51.986L32.3751 37.3748H24.9056C24.2359 37.3748 23.6207 36.9971 23.3167 36.3986C23.0127 35.8001 23.0721 35.0805 23.4687 34.5414L36.5314 16.7286C37.0183 16.0612 37.9018 15.8142 38.6594 16.1396C39.4195 16.4602 39.8612 17.2606 39.7258 18.0729L37.6976 30.2497H45.0934C45.7442 30.2497 46.3427 30.6036 46.6562 31.1759C46.9673 31.7459 46.9436 32.4418 46.5944 32.9905L33.7051 53.1782C33.3702 53.7031 32.7979 54 32.2041 54Z" fill="#AAA9DB"/>
</g>
<defs>
<clipPath id="clip0_1002_6489">
<rect width="70" height="70" fill="white"/>
</clipPath>
</defs>
</svg>
