<svg width="70" height="70" viewBox="0 0 70 70" fill="none" xmlns="http://www.w3.org/2000/svg">
<g clip-path="url(#clip0_1002_6481)">
<path d="M69.3991 50.73C68.4115 49.7424 67.3589 48.8492 66.2476 48.0495C63.8802 50.7838 61.1004 53.0819 57.9663 54.8911C53.1117 57.6945 47.5903 59.1912 41.9873 59.2266C44.9626 60.4264 48.1703 61.0559 51.475 61.0559C58.2459 61.0559 64.6115 58.4191 69.3993 53.6313C69.7839 53.2468 70 52.7252 70 52.1813C69.9999 51.6374 69.7837 51.1148 69.3991 50.73Z" fill="#F5BCD0"/>
<path d="M3.75225 48.0495C2.641 48.8493 1.5884 49.7425 0.600742 50.73C0.216152 51.1148 0 51.6374 0 52.1813C0 52.7252 0.216152 53.2468 0.600742 53.6313C5.3885 58.4191 11.7541 61.0559 18.525 61.0559C21.8297 61.0559 25.0374 60.4264 28.0127 59.2266C22.4093 59.1912 16.8883 57.6945 12.0332 54.8908C8.8993 53.0819 6.11953 50.7838 3.75225 48.0495Z" fill="#F5BCD0"/>
<path d="M14.0839 51.339C17.4933 53.3077 21.4569 54.6279 25.6827 55.0104C18.3807 50.9689 14.4343 45.3578 12.5767 42.1404C10.5339 38.6024 9.15316 34.7689 8.46656 30.7352C6.42658 30.8227 4.39576 31.1273 2.4199 31.6524C1.51756 31.8679 0.84668 32.6802 0.84668 33.6484C0.84668 33.8278 0.870195 34.0063 0.91668 34.1796C3.01121 41.9919 8.12531 47.8993 14.0839 51.339Z" fill="#F5BCD0"/>
<path d="M44.3174 55.0104C48.5431 54.6278 52.5068 53.3077 55.9162 51.339C61.8748 47.8993 66.9889 41.9919 69.0836 34.1797C69.1301 34.0065 69.1536 33.8279 69.1536 33.6485C69.1536 32.6803 68.4827 31.8681 67.5803 31.6526C65.6045 31.1274 63.5737 30.8227 61.5337 30.7353C60.8471 34.7691 59.4664 38.6025 57.4235 42.1405C55.5658 45.358 51.624 50.9663 44.3174 55.0104Z" fill="#F5BCD0"/>
<path d="M25.6071 50.1687C23.5349 46.8214 20.3167 40.396 20.3167 31.5882C20.3167 27.1249 21.1429 22.7834 22.7701 18.6643C20.5287 17.3858 18.1255 16.3916 15.6234 15.7214C14.5291 15.4286 13.4051 16.0774 13.1119 17.1713C10.8735 25.5218 12.4522 33.7229 16.1284 40.0896C18.3604 43.9554 21.5656 47.4876 25.6071 50.1687Z" fill="#F5BCD0"/>
<path d="M44.3906 50.1699C48.4331 47.4887 51.639 43.9559 53.8713 40.0896C57.5475 33.7228 59.1262 25.5218 56.8878 17.1713C56.5946 16.0774 55.4706 15.4284 54.3763 15.7214C51.8738 16.3916 49.4704 17.3861 47.2288 18.6649C48.8557 22.7836 49.6819 27.125 49.6819 31.5882C49.6821 40.4035 46.4581 46.8307 44.3906 50.1699Z" fill="#F5BCD0"/>
<path d="M36.4503 9.54474C36.0657 9.16015 35.5429 8.944 34.9991 8.944C34.4552 8.944 33.9336 9.16015 33.549 9.54474C28.1775 14.9163 24.4189 22.6704 24.4189 31.588C24.4189 40.5098 28.1817 48.2642 33.549 53.6313C33.9336 54.0159 34.4564 54.2321 35.0003 54.2321C35.5442 54.2321 36.0657 54.0159 36.4503 53.6313C41.8163 48.2655 45.5804 40.5118 45.5804 31.588C45.5805 22.6663 41.8191 14.9133 36.4503 9.54474Z" fill="#F5BCD0"/>
</g>
<defs>
<clipPath id="clip0_1002_6481">
<rect width="70" height="70" fill="white"/>
</clipPath>
</defs>
</svg>
