<svg width="70" height="70" viewBox="0 0 70 70" fill="none" xmlns="http://www.w3.org/2000/svg">
<path d="M66.6765 56.6514H6.0153C5.20918 56.6514 4.62103 57.3949 4.77716 58.1858C5.55104 62.1055 9.23547 65.0753 13.6637 65.0753H59.0281C63.4563 65.0753 67.1407 62.1055 67.9145 58.1858C68.0707 57.3949 67.4826 56.6514 66.6765 56.6514ZM40.73 61.8923H31.962C31.393 61.8923 30.9325 61.4319 30.9325 60.8629C30.9325 60.2939 31.393 59.8335 31.962 59.8335H40.73C41.299 59.8335 41.7595 60.2939 41.7595 60.8629C41.7595 61.4319 41.299 61.8923 40.73 61.8923Z" fill="#F5BCD0"/>
<path d="M48.8588 24.3169L48.3853 24.5949H56.2911V49.4346H16.4014V33.1699C15.2794 33.139 14.147 33.0669 13.025 32.9537C12.3868 32.892 11.7794 32.7066 11.2441 32.4184V54.5919H61.4485V22.0626C61.4485 20.6111 60.2647 19.4375 58.8132 19.4375H48.5809L49.5691 20.6521C50.0118 21.2287 50.1867 21.9389 50.0632 22.6288C49.9088 23.3802 49.4764 23.9772 48.8588 24.3169Z" fill="#F5BCD0"/>
<path d="M13.2204 30.9052C21.2601 31.6772 29.0116 30.514 36.4748 27.4155C37.5866 26.9523 38.2454 25.8095 38.0704 24.6155L36.8763 16.6685L25.8719 22.9375C25.069 23.4009 24.1425 23.6479 23.2057 23.6479C22.8146 23.6479 22.4234 23.5964 22.0322 23.5139L9.66895 20.7449L10.863 28.7022C11.0484 29.8861 12.0263 30.792 13.2204 30.9052Z" fill="#F5BCD0"/>
<path d="M24.8564 21.1494L37.3313 14.0338L38.1138 14.1815L41.3297 18.6784L41.2819 18.7066C41.1172 18.7992 41.0451 19.0051 41.1172 19.1801L43.3304 24.6669C43.3716 24.7697 43.4539 24.8521 43.5672 24.8934C43.6084 24.9037 43.6495 24.914 43.6907 24.914C43.7525 24.914 43.8245 24.8934 43.8863 24.8624L47.8496 22.5257C47.9525 22.4741 48.0142 22.3713 48.0348 22.2683C48.0554 22.1551 48.0348 22.0419 47.9628 21.9491L44.2466 17.3477C44.1231 17.1934 43.9172 17.1625 43.7525 17.2551L43.1124 17.6312L39.6101 12.7339L42.3785 11.1549C43.1274 10.7276 42.9585 9.60272 42.1172 9.41422L22.4328 5.00493C21.6248 4.82398 20.7783 4.95102 20.0591 5.36131L2.5371 15.3558C1.78816 15.783 1.95704 16.908 2.79834 17.0965L22.4826 21.5058C23.2906 21.6867 24.1371 21.5598 24.8564 21.1494Z" fill="#F5BCD0"/>
</svg>
