<svg width="70" height="70" viewBox="0 0 70 70" fill="none" xmlns="http://www.w3.org/2000/svg">
<g clip-path="url(#clip0_974_518)">
<path d="M68.8667 8.40877L52.4605 0.205649C52.4407 0.196036 52.4194 0.198707 52.3996 0.189628C51.1109 -0.409585 49.5461 0.472144 49.5045 1.97925C49.5039 2.00062 49.4922 2.01877 49.4922 2.04014V24.5987H22.832C19.4397 24.5987 16.6797 27.3587 16.6797 30.7511C16.6797 34.1439 19.4397 36.9034 22.832 36.9034H63.8477C64.9809 36.9034 65.8984 35.9864 65.8984 34.8526C65.8984 33.7194 64.9809 32.8019 63.8477 32.8019H61.7969C60.6652 32.8019 59.7461 31.8827 59.7461 30.7511C59.7461 29.6199 60.6652 28.7003 61.7969 28.7003H63.8477C64.9809 28.7003 65.8984 27.7833 65.8984 26.6495C65.8984 25.5162 64.9809 24.5987 63.8477 24.5987H53.5938V19.7142L68.8667 12.0778C69.5615 11.7295 70 11.0209 70 10.2433C70 9.46621 69.5615 8.75751 68.8667 8.40877Z" fill="#AAA9DB"/>
<path d="M45.1172 61.7861H47.168C48.3012 61.7861 49.2188 60.8692 49.2188 59.7354C49.2188 58.6021 48.3012 57.6846 47.168 57.6846H6.15234C2.76001 57.6846 0 60.4446 0 63.8369C0 67.2298 2.76001 69.9893 6.15234 69.9893H47.168C48.3012 69.9893 49.2188 69.0723 49.2188 67.9385C49.2188 66.8052 48.3012 65.8877 47.168 65.8877H45.1172C43.9855 65.8877 43.0664 64.9686 43.0664 63.8369C43.0664 62.7058 43.9855 61.7861 45.1172 61.7861Z" fill="#AAA9DB"/>
<path d="M53.3203 45.3799H55.3711C56.5044 45.3799 57.4219 44.4629 57.4219 43.3291C57.4219 42.1958 56.5044 41.2783 55.3711 41.2783H14.3555C10.9631 41.2783 8.20312 44.0383 8.20312 47.4307C8.20312 50.8235 10.9631 53.583 14.3555 53.583H55.3711C56.5044 53.583 57.4219 52.666 57.4219 51.5322C57.4219 50.399 56.5044 49.4814 55.3711 49.4814H53.3203C52.1886 49.4814 51.2695 48.5623 51.2695 47.4307C51.2695 46.2995 52.1886 45.3799 53.3203 45.3799Z" fill="#AAA9DB"/>
</g>
<defs>
<clipPath id="clip0_974_518">
<rect width="70" height="70" fill="white"/>
</clipPath>
</defs>
</svg>
