<svg width="70" height="70" viewBox="0 0 70 70" fill="none" xmlns="http://www.w3.org/2000/svg">
<path d="M63.4375 53.8781H42.1531C41.5725 53.8777 41.0023 54.0325 40.5016 54.3265C40.1107 54.5048 39.2289 55.1939 38.7844 55.1578H31.2156C30.091 54.958 29.1295 53.7587 27.8469 53.8782L6.5625 53.8781C5.98286 53.8798 5.42744 54.1108 5.01758 54.5207C4.60771 54.9305 4.37669 55.4859 4.375 56.0656C4.37554 57.5158 4.95188 58.9065 5.97735 59.932C7.00283 60.9575 8.39351 61.5338 9.84375 61.5343H60.1562C61.6065 61.5338 62.9972 60.9575 64.0226 59.932C65.0481 58.9065 65.6245 57.5158 65.625 56.0656C65.6233 55.4859 65.3923 54.9305 64.9824 54.5207C64.5726 54.1108 64.0171 53.8798 63.4375 53.8781Z" fill="#8AC6E8"/>
<path d="M19.1953 35.9187L31.8281 35.9188C32.1179 35.9179 32.3956 35.8024 32.6006 35.5975C32.8055 35.3926 32.921 35.1149 32.9218 34.825V22.0282C32.8896 19.3204 32.0572 16.6826 30.5293 14.4468C29.0015 12.211 26.8465 10.4771 24.3355 9.46314C21.8245 8.44921 19.0697 8.20062 16.4178 8.74864C13.7659 9.29666 11.3353 10.6168 9.43184 12.543C7.52842 14.4691 6.23723 16.9152 5.72074 19.5735C5.20426 22.2318 5.48555 24.9834 6.52923 27.4822C7.57291 29.9809 9.33234 32.1152 11.5861 33.6164C13.8399 35.1176 16.4874 35.9186 19.1953 35.9187ZM11.6023 29.8654C12.3358 28.0127 13.727 26.4956 15.5093 25.6047C14.6854 24.9324 14.0607 24.0478 13.7029 23.0464C13.345 22.045 13.2675 20.9648 13.4788 19.9226C15.0184 13.0406 24.9279 14.1732 25.025 21.0877C25.025 21.9551 24.8316 22.8117 24.4589 23.5949C24.0862 24.3782 23.5435 25.0686 22.8703 25.6157C24.1776 26.2718 25.2855 27.2657 26.0793 28.4943C26.8731 29.7229 27.3238 31.1414 27.3847 32.6029C27.3877 32.8898 27.2779 33.1664 27.0792 33.3734C26.8804 33.5803 26.6084 33.7011 26.3216 33.7097C26.0347 33.7184 25.756 33.6142 25.5451 33.4196C25.3342 33.225 25.208 32.9555 25.1937 32.6689C24.7994 26.2358 15.9022 24.771 13.606 30.7256C13.49 30.9884 13.275 31.1948 13.0077 31.3C12.7404 31.4051 12.4423 31.4005 12.1784 31.2872C11.9144 31.1739 11.7059 30.961 11.598 30.6948C11.4901 30.4285 11.4917 30.1305 11.6023 29.8654Z" fill="#8AC6E8"/>
<path d="M19.1953 24.7297C20.1546 24.7194 21.071 24.3312 21.7457 23.6492C22.4204 22.9673 22.7988 22.0467 22.7988 21.0874C22.7988 20.1282 22.4203 19.2076 21.7456 18.5257C21.0709 17.8438 20.1545 17.4555 19.1952 17.4453C18.236 17.4556 17.3195 17.8438 16.6449 18.5258C15.9702 19.2077 15.5918 20.1283 15.5918 21.0876C15.5918 22.0468 15.9703 22.9674 16.6449 23.6493C17.3196 24.3312 18.2361 24.7195 19.1953 24.7297Z" fill="#8AC6E8"/>
<path d="M50.8047 33.1516C51.7634 33.1405 52.6791 32.7519 53.3532 32.0701C54.0272 31.3882 54.4052 30.4681 54.4052 29.5093C54.4052 28.5505 54.0272 27.6304 53.3531 26.9486C52.679 26.2668 51.7633 25.8782 50.8046 25.8672C49.8459 25.8782 48.9302 26.2668 48.2561 26.9487C47.5821 27.6305 47.2041 28.5506 47.2041 29.5094C47.2041 30.4682 47.5822 31.3883 48.2562 32.0702C48.9303 32.752 49.846 33.1406 50.8047 33.1516Z" fill="#8AC6E8"/>
<path d="M37.0781 17.9813V30.6141C37.0985 43.3789 53.1239 49.1222 61.25 39.5061C68.8288 30.7893 62.3946 16.7972 50.8044 16.8876L38.1719 16.8875C37.8821 16.8884 37.6043 17.0039 37.3994 17.2088C37.1945 17.4137 37.079 17.6915 37.0781 17.9813ZM43.2186 38.2973C43.9488 36.4387 45.3423 34.917 47.1297 34.0266C46.3051 33.3596 45.6786 32.4798 45.318 31.4824C44.9574 30.485 44.8764 29.408 45.0837 28.3679C46.6008 21.4647 56.5357 22.582 56.6343 29.5095C56.6352 30.3744 56.4432 31.2286 56.0724 32.01C55.7015 32.7914 55.1612 33.4803 54.4906 34.0266C56.273 34.9175 57.6641 36.4346 58.3977 38.2873C58.5083 38.5533 58.5091 38.8523 58.4 39.1189C58.2908 39.3855 58.0806 39.5981 57.8152 39.7102C57.5498 39.8224 57.2509 39.8249 56.9836 39.7173C56.7164 39.6097 56.5026 39.4008 56.3889 39.136C55.9392 38.0244 55.1677 37.0725 54.1734 36.4023C53.179 35.7321 52.0071 35.3743 50.808 35.3747C49.6089 35.3751 48.4372 35.7337 47.4433 36.4045C46.4493 37.0753 45.6785 38.0278 45.2295 39.1397C45.1165 39.4044 44.9033 39.6136 44.6366 39.7217C44.3699 39.8298 44.0713 39.8281 43.8058 39.7169C43.5404 39.6057 43.3297 39.3941 43.2197 39.1281C43.1097 38.8622 43.1093 38.5635 43.2186 38.2973Z" fill="#8AC6E8"/>
<path d="M59.9266 43.6406C52.5006 49.164 40.916 46.35 36.772 38.106L19.0641 38.1062C16.9828 38.0998 14.9237 37.6776 13.0079 36.8643C11.0921 36.051 9.35811 34.8631 7.90781 33.3703C7.42754 32.881 6.97823 32.3623 6.5625 31.8171V51.6906H27.8469C29.1707 51.7482 30.4486 52.1931 31.5219 52.9703H38.4781C39.5496 52.1897 40.8285 51.7444 42.1531 51.6907L63.4375 51.6906V40.2718C62.4561 41.5764 61.2705 42.7139 59.9266 43.6406Z" fill="#8AC6E8"/>
<path d="M32.6026 12.5707C36.0338 11.9717 39.5652 12.6703 42.5099 14.5307C42.755 14.6775 43.0479 14.7226 43.3259 14.6563C43.6038 14.59 43.8448 14.4176 43.9973 14.1759C44.1498 13.9343 44.2017 13.6425 44.1419 13.3631C44.0821 13.0836 43.9153 12.8387 43.6772 12.6806C41.0802 11.0405 38.0714 10.1704 34.9999 10.1711C33.7921 10.3211 31.1811 9.87129 31.3314 11.6893C31.357 11.8307 31.4101 11.9656 31.4878 12.0864C31.5656 12.2072 31.6663 12.3115 31.7844 12.3934C31.9024 12.4752 32.0354 12.533 32.1758 12.5634C32.3162 12.5938 32.4612 12.5963 32.6026 12.5707Z" fill="#8AC6E8"/>
</svg>
