<svg width="70" height="70" viewBox="0 0 70 70" fill="none" xmlns="http://www.w3.org/2000/svg">
<g clip-path="url(#clip0_974_680)">
<path d="M16.9822 25.6857C19.6093 25.6857 21.7389 23.556 21.7389 20.929C21.7389 18.302 19.6093 16.1724 16.9822 16.1724C14.3552 16.1724 12.2256 18.302 12.2256 20.929C12.2256 23.556 14.3552 25.6857 16.9822 25.6857Z" fill="#AAA9DB"/>
<path d="M46.0809 9.51329C48.7079 9.51329 50.8375 7.38367 50.8375 4.75665C50.8375 2.12962 48.7079 0 46.0809 0C43.4538 0 41.3242 2.12962 41.3242 4.75665C41.3242 7.38367 43.4538 9.51329 46.0809 9.51329Z" fill="#AAA9DB"/>
<path d="M64.0223 51.913H61.8494C61.8994 51.8958 61.9496 51.8801 61.9992 51.8599C63.3495 51.3035 63.9931 49.7579 63.4368 48.4075L58.8406 37.2517L58.4929 28.9425C58.4791 28.6115 58.4024 28.2986 58.2789 28.0113L54.8456 12.6157C54.4593 10.8836 52.742 9.79256 51.0099 10.1788L45.417 11.4261C43.6849 11.8123 42.5939 13.5297 42.9801 15.2618L43.4808 17.5065L45.656 14.0738L43.3854 20.6241L35.8992 23.8433C34.8259 24.3049 34.33 25.5492 34.7915 26.6225C35.253 27.6953 36.4966 28.1919 37.5705 27.7302L45.9142 24.1423C46.4604 23.9075 46.8824 23.4535 47.0773 22.8918L49.6536 15.4602L48.8262 23.498C48.6562 25.1481 47.2581 25.5797 46.6454 25.8427L45.4542 26.355L46.1527 29.4873L43.861 35.7352C43.7954 35.9144 43.7492 36.1001 43.7234 36.289L41.9852 49.0583C41.8124 50.3283 42.5722 51.5098 43.7387 51.9132H41.5197C40.9806 51.9132 40.5436 52.3501 40.5436 52.8892V60.9567H29.9724C30.8012 60.4158 31.2929 59.4324 31.1505 58.3865L29.4123 45.6172C29.257 44.476 28.3807 43.5665 27.2459 43.3688L22.2945 42.5061V38.015L16.0594 32.9333L23.1328 36.3738C23.6674 36.634 24.2867 36.6569 24.8392 36.4372L33.2795 33.0832C34.3652 32.6517 34.8956 31.4219 34.4642 30.3359C34.0327 29.2502 32.8027 28.7199 31.717 29.1512L24.1441 32.1607L17.9101 29.1284L22.2692 30.1105C22.0737 28.523 20.7213 27.2939 19.0811 27.2939H13.3509C11.5762 27.2939 10.1377 28.7326 10.1377 30.5071V46.9934H10.1405L9.79751 55.192L5.2011 66.3479C4.64464 67.6982 5.28846 69.2439 6.63871 69.8002C7.99006 70.3568 9.535 69.7121 10.091 68.3626L14.8651 56.7758C14.9825 56.4906 15.0494 56.1871 15.0621 55.879L15.4292 47.1042C15.4307 47.0668 15.4282 47.0305 15.4282 46.9937H17.6085C17.9871 47.1487 17.6317 47.0619 24.4328 48.2471L25.9102 59.1C26.0179 59.892 26.4674 60.552 27.0882 60.957H17.0649C16.5259 60.957 16.0888 61.3939 16.0888 61.933V69.0247C16.0888 69.5637 16.5258 70.0006 17.0649 70.0006C23.5181 70.0006 57.5691 70.0006 64.0221 70.0006C64.5611 70.0006 64.9982 69.5638 64.9982 69.0247C64.9982 65.8501 64.9982 56.064 64.9982 52.8895C64.9982 52.35 64.5614 51.913 64.0223 51.913ZM45.4667 51.9129C46.3793 51.5972 47.0863 50.7936 47.2253 49.7713L48.9248 37.2864L51.5048 30.2517L53.238 29.8652L53.5759 37.9384C53.5886 38.2466 53.6554 38.55 53.7729 38.8352L58.5467 50.422C58.8474 51.152 59.438 51.6739 60.13 51.9129H45.4667Z" fill="#AAA9DB"/>
</g>
<defs>
<clipPath id="clip0_974_680">
<rect width="70" height="70" fill="white"/>
</clipPath>
</defs>
</svg>
