<svg width="70" height="70" viewBox="0 0 70 70" fill="none" xmlns="http://www.w3.org/2000/svg">
<g clip-path="url(#clip0_974_705)">
<path d="M18.6663 15.1677V10.5011C18.6663 9.85684 18.1439 9.33447 17.4997 9.33447H1.16664C0.522369 9.33447 0 9.85684 0 10.5011V15.1677H18.6663Z" fill="#8AC6E8"/>
<path d="M0 17.501V56.0002H18.6663V17.501H0ZM13.9997 32.6673H4.66657C4.0223 32.6673 3.49993 32.145 3.49993 31.5007V22.1675C3.49993 21.5233 4.0223 21.0009 4.66657 21.0009H13.9997C14.644 21.0009 15.1664 21.5233 15.1664 22.1675V31.5007C15.1664 32.145 14.644 32.6673 13.9997 32.6673Z" fill="#8AC6E8"/>
<path d="M0 63V68.8332C0 69.4775 0.522369 69.9999 1.16664 69.9999H17.4997C18.1439 69.9999 18.6663 69.4775 18.6663 68.8332V63H0Z" fill="#8AC6E8"/>
<path d="M0 58.3335H18.6663V60.6668H0V58.3335Z" fill="#8AC6E8"/>
<path d="M21 58.3335H36.1664V60.6668H21V58.3335Z" fill="#8AC6E8"/>
<path d="M36.1664 4.66804V1.16811C36.1664 0.523834 35.644 0.00146484 34.9997 0.00146484H22.1666C21.5224 0.00146484 21 0.523834 21 1.16811V4.66804H36.1664Z" fill="#8AC6E8"/>
<path d="M21 12.8345H36.1664V56.0003H21V12.8345Z" fill="#8AC6E8"/>
<path d="M21 63V68.8332C21 69.4775 21.5224 69.9999 22.1666 69.9999H34.9997C35.644 69.9999 36.1664 69.4775 36.1664 68.8332V63H21Z" fill="#8AC6E8"/>
<path d="M21 7.00098H36.1664V10.5009H21V7.00098Z" fill="#8AC6E8"/>
<path d="M38.4717 24.1603L39.096 26.5568L58.8538 21.2881L58.2289 18.8916L38.4717 24.1603Z" fill="#8AC6E8"/>
<path d="M48.2208 61.5338L67.978 56.2651L66.7271 51.4692L46.9688 56.7379L48.2208 61.5338Z" fill="#8AC6E8"/>
<path d="M66.138 49.2116L59.4429 23.5454L39.6846 28.8141L46.3797 54.4803L66.138 49.2116Z" fill="#8AC6E8"/>
<path d="M37.8821 21.9027L57.6387 16.6346L55.964 10.2095C55.7914 9.58745 55.1556 9.21547 54.529 9.36984L37.0294 14.0364C36.4113 14.2056 36.0427 14.8385 36.2005 15.4594L37.8821 21.9027Z" fill="#8AC6E8"/>
<path d="M68.5669 58.5225L48.8086 63.7912L50.2002 69.1248C50.2811 69.4256 50.4782 69.6819 50.7488 69.8369C50.9248 69.9434 51.1265 69.9998 51.3321 69.9998C51.4341 69.9998 51.5361 69.9878 51.6352 69.965L69.1348 65.2984C69.7529 65.1293 70.1215 64.4958 69.9637 63.8749L68.5669 58.5225Z" fill="#8AC6E8"/>
</g>
<defs>
<clipPath id="clip0_974_705">
<rect width="70" height="70" fill="white"/>
</clipPath>
</defs>
</svg>
