<svg width="70" height="70" viewBox="0 0 70 70" fill="none" xmlns="http://www.w3.org/2000/svg">
<path d="M65.2404 14.42C65.1004 12.32 63.1404 10.78 61.0404 11.06C49.7004 12.6 41.3004 6.86004 37.3804 3.36004C35.9804 2.10004 33.8804 2.10004 32.6204 3.36004C28.7004 6.72004 20.3004 12.6 8.96039 11.06C6.86039 10.78 4.90039 12.32 4.76039 14.42C4.20039 25.9 5.04039 58.1 35.0004 67.62C64.9604 58.1 65.9404 25.9 65.2404 14.42ZM35.0004 52.08C25.4804 52.08 17.9204 44.38 17.9204 35C17.9204 25.62 25.4804 17.92 35.0004 17.92C44.5204 17.92 52.0804 25.48 52.0804 35C52.0804 44.52 44.5204 52.08 35.0004 52.08Z" fill="#F5BCD0"/>
<path d="M31.6407 30.6601C31.6407 29.5401 32.2007 28.7001 32.9007 28.0001C33.4607 27.5801 34.1607 27.3001 34.8607 27.3001C36.4007 27.3001 38.2207 28.5601 38.2207 30.6601V33.3201H31.5007V30.6601H31.6407ZM41.8607 34.5801C41.5807 34.1601 41.3007 33.8801 40.8807 33.6001C40.6007 33.4601 40.3207 33.3201 40.0407 33.3201C40.0407 33.0401 40.0407 30.6601 40.0407 30.6601C40.0407 28.2801 38.0807 25.6201 35.0007 25.6201C32.2007 25.6201 29.9607 27.8601 29.9607 30.6601V33.3201C29.6807 33.3201 29.4007 33.4601 29.1207 33.6001C28.7007 33.8801 28.2807 34.1601 28.0007 34.5801C27.7207 35.0001 27.7207 35.4201 27.7207 35.8401V41.7201C27.7207 43.2601 28.9807 44.2401 30.2407 44.2401H39.7607C40.3207 44.2401 40.7407 44.1001 41.1607 43.8201C41.5807 43.5401 41.8607 43.4001 42.0007 42.9801C42.2807 42.5601 42.4207 42.1401 42.4207 41.5801V35.7001C42.2807 35.4201 42.1407 35.0001 41.8607 34.5801ZM35.7007 38.9201L35.8407 40.0401C35.8407 40.4601 35.5607 40.7401 35.1407 40.7401H34.7207C34.3007 40.7401 34.0207 40.4601 34.0207 40.0401L34.1607 38.9201C33.7407 38.6401 33.6007 38.2201 33.6007 37.8001C33.6007 37.1001 34.1607 36.5401 34.8607 36.5401C35.5607 36.5401 36.1207 37.1001 36.1207 37.8001C36.2607 38.2201 36.1207 38.6401 35.7007 38.9201Z" fill="#F5BCD0"/>
</svg>
