<svg width="70" height="70" viewBox="0 0 70 70" fill="none" xmlns="http://www.w3.org/2000/svg">
<g clip-path="url(#clip0_974_863)">
<path d="M70 40.6055C70 29.9616 64.2808 20.2055 55.0318 14.9898C53.7298 12.6809 52.105 10.535 50.1796 8.60945C44.6277 3.05758 37.2462 0 29.3945 0C21.5429 0 14.1613 3.05758 8.60945 8.60945C3.05758 14.1613 0 21.5429 0 29.3945C0 34.172 1.16826 38.8931 3.38475 43.0959L0.923125 57.8659L15.247 55.4787C20.522 64.4648 30.1339 70 40.6055 70C45.3831 70 50.104 68.8317 54.307 66.6153L69.0769 69.0769L66.6153 54.3069C68.8317 50.1039 70 45.383 70 40.6055ZM29.3945 54.6875C25.072 54.6875 20.8048 53.5771 17.0543 51.4762L16.4257 51.1241L5.91281 52.8763L7.66486 42.3634L7.31281 41.7348C5.21199 37.9843 4.10156 33.717 4.10156 29.3945C4.10156 15.448 15.448 4.10156 29.3945 4.10156C43.3412 4.10156 54.6875 15.448 54.6875 29.3945C54.6875 43.3411 43.3412 54.6875 29.3945 54.6875Z" fill="#F5BCD0"/>
<path d="M41.4223 20.6607C38.5754 17.8138 33.9596 17.8138 31.1127 20.6607L29.3944 22.3788L27.6762 20.6606C24.8293 17.8137 20.2135 17.8137 17.3666 20.6606C14.5197 23.5075 14.5197 28.1232 17.3666 30.9701L29.3944 42.9981L41.4223 30.9702C44.2692 28.1234 44.2692 23.5076 41.4223 20.6607Z" fill="#F5BCD0"/>
</g>
<defs>
<clipPath id="clip0_974_863">
<rect width="70" height="70" fill="white"/>
</clipPath>
</defs>
</svg>
