<svg width="70" height="70" viewBox="0 0 70 70" fill="none" xmlns="http://www.w3.org/2000/svg">
<path d="M35 20.5078C40.6631 20.5078 45.2539 15.917 45.2539 10.2539C45.2539 4.59083 40.6631 0 35 0C29.3369 0 24.7461 4.59083 24.7461 10.2539C24.7461 15.917 29.3369 20.5078 35 20.5078Z" fill="#AAA9DB"/>
<path d="M65.7614 61.7968C65.7614 57.2766 62.0945 53.5977 57.4541 53.5977C57.4502 53.5977 57.4481 53.5977 57.4442 53.5977C54.1557 53.8119 36.3956 62.5277 29.7767 66.1506L22.7432 69.9999H57.5583C62.0825 69.9999 65.7614 66.321 65.7614 61.7968Z" fill="#AAA9DB"/>
<path d="M64.9925 45.8392C58.762 40.8565 56.8937 35.1995 55.5078 28.1189C55.5078 23.9155 52.1002 20.5078 47.8967 20.5078H22.1033C17.8999 20.5078 14.4922 23.9154 14.4922 28.1189C13.1478 34.9867 11.4172 40.7133 5.00719 45.8393L0 49.4922H6.28906C13.0382 49.4922 19.7433 46.2578 24.0692 41.227L26.3595 54.6707C29.3802 56.0746 32.395 57.5513 34.9934 58.8548C37.5997 57.5438 40.6228 56.0578 43.6406 54.6473L46.159 40.4138C50.505 46.1176 56.8697 49.4922 63.7109 49.4922H70L64.9925 45.8392Z" fill="#AAA9DB"/>
<path d="M12.5556 53.5977C12.5516 53.5977 12.5496 53.5977 12.5456 53.5977C7.90521 53.5977 4.23828 57.2766 4.23828 61.7968C4.23828 66.321 7.91725 69.9999 12.4414 69.9999H13.5349C13.9608 69.7776 30.9021 60.9356 30.4764 61.1577C23.0936 57.5373 14.7133 53.7383 12.5556 53.5977Z" fill="#AAA9DB"/>
</svg>
