<svg width="345" height="603" viewBox="0 0 345 603" fill="none" xmlns="http://www.w3.org/2000/svg">
<path d="M-41.862 1.11768C131.119 1.11768 271.276 135.551 271.276 301.294C271.276 467.038 131.119 601.471 -41.862 601.471C-214.843 601.471 -355 467.038 -355 301.294C-355 135.551 -214.843 1.11768 -41.862 1.11768Z" stroke="#E1EDF4" stroke-width="2"/>
<path d="M306.247 97.048C305.355 97.5007 305.355 97.5009 305.355 97.5015L305.357 97.5049L305.364 97.5195L305.395 97.5792C305.421 97.6327 305.462 97.7132 305.515 97.8204C305.621 98.0347 305.78 98.3555 305.985 98.7789C306.397 99.6258 306.998 100.883 307.754 102.52C309.268 105.794 311.402 110.585 313.883 116.647C318.846 128.771 325.193 145.974 330.728 166.277C341.805 206.906 349.6 259.845 336.65 309.346C328.571 340.227 308.331 387.174 290.09 413.297C260.934 455.052 228.156 479.248 211.755 489.691C210.368 490.574 208.789 491.338 207.107 492.151C206.823 492.288 206.536 492.427 206.246 492.568C204.273 493.529 202.211 494.583 200.382 495.95C198.65 497.244 197.186 498.823 195.812 500.354C195.655 500.53 195.498 500.706 195.342 500.88C194.124 502.244 192.963 503.543 191.673 504.658C181.083 513.808 162.348 528.148 139.953 537.265C110.306 549.334 72.5196 549.294 55.4006 547.225C15.4551 542.397 -26.5806 528.741 -52.4498 519.867C-54.6219 519.122 -56.8404 518.091 -59.2683 516.964C-60.003 516.622 -60.757 516.272 -61.5346 515.918C-64.851 514.409 -68.5257 512.869 -72.7502 511.822C-77.1084 510.741 -82.4319 510.068 -87.847 509.383C-88.342 509.321 -88.8378 509.258 -89.3336 509.195C-95.2923 508.437 -101.284 507.617 -106.349 506.196C-123.617 501.325 -140.127 494.262 -155.44 485.196L-155.949 486.056L-155.44 485.196C-182.275 469.318 -211.281 438.451 -232.542 411.248C-272.998 359.488 -285.692 285.922 -289.434 253.871C-289.613 252.343 -289.487 250.644 -289.338 248.635C-289.307 248.207 -289.274 247.766 -289.243 247.309C-289.07 244.753 -288.965 241.837 -289.508 238.584C-290.056 235.311 -291.188 231.734 -292.335 228.108L-292.497 227.598C-293.708 223.766 -294.917 219.867 -295.548 216.046L-296.534 216.208L-295.548 216.046C-298.883 195.86 -301.527 165.177 -293.719 138.772C-285.525 111.064 -265.344 88.0933 -252.059 75.2945C-244.112 67.6376 -236.069 59.477 -231.517 53.9767C-225.735 46.991 -217.381 37.7242 -208.299 30.3146C-195.64 19.9873 -181.664 11.3931 -172.08 5.95895C-164.756 1.80628 -156.463 -3.45862 -149.959 -8.00511C-139.249 -15.4739 -128.055 -22.284 -116.444 -28.3945C-84.3936 -45.24 -39.0037 -62.7505 5.18427 -67.0512C61.1701 -72.5003 115.644 -54.0839 142.917 -41.3102C154.775 -35.7563 169.304 -29.3962 180.897 -24.8771C199.756 -17.525 228.389 -4.42031 248.414 13.5735C267.852 31.0402 282.08 51.9953 291.453 68.6035C296.138 76.9039 299.605 84.1096 301.899 89.2373C303.047 91.8009 303.9 93.8444 304.467 95.2449C304.75 95.9451 304.961 96.4846 305.101 96.8478C305.132 96.9277 305.159 96.9992 305.183 97.0619C305.214 97.1416 305.238 97.2073 305.258 97.2586L305.296 97.3612L305.305 97.3862L305.308 97.3921L305.308 97.3933C305.308 97.3934 305.308 97.3934 305.549 97.3047L305.308 97.3935L305.328 97.4485L305.355 97.5007L306.247 97.048Z" stroke="#E1EDF4" stroke-width="2"/>
<path d="M-155.44 485.196L-155.44 485.196C-182.275 469.318 -211.281 438.451 -232.542 411.248C-272.998 359.488 -285.692 285.922 -289.434 253.871C-289.613 252.343 -289.487 250.644 -289.338 248.635C-289.307 248.207 -289.274 247.766 -289.243 247.309C-289.07 244.753 -288.965 241.837 -289.508 238.584C-290.056 235.311 -291.188 231.734 -292.335 228.108C-292.389 227.938 -292.443 227.768 -292.497 227.598C-293.708 223.766 -294.917 219.867 -295.548 216.046L-296.535 216.209L-295.548 216.046C-298.883 195.86 -301.527 165.177 -293.719 138.772C-289.201 123.494 -281.033 109.651 -272.373 98.1452C-215.147 38.5064 -133.069 1.11768 -41.862 1.11768C131.119 1.11768 271.276 135.551 271.276 301.294C271.276 386.115 234.566 462.713 175.542 517.312C165.664 524.344 153.482 531.758 139.953 537.265C110.306 549.334 72.5196 549.294 55.4007 547.225C15.4552 542.397 -26.5805 528.741 -52.4498 519.867C-54.6219 519.122 -56.8406 518.091 -59.2686 516.964C-60.0032 516.622 -60.757 516.272 -61.5345 515.918C-64.8509 514.409 -68.5257 512.87 -72.7502 511.822C-77.1085 510.741 -82.4323 510.068 -87.8476 509.383C-88.3424 509.321 -88.838 509.258 -89.3336 509.195C-95.2928 508.437 -101.285 507.617 -106.35 506.196C-123.617 501.325 -140.127 494.262 -155.44 485.196Z" stroke="#E1EDF4" stroke-width="2"/>
</svg>
