<svg width="458" height="577" viewBox="0 0 458 577" fill="none" xmlns="http://www.w3.org/2000/svg">
<path d="M79.0261 53.0489C79.3027 52.8014 79.5647 52.5539 79.8412 52.3064C154.914 -15.2838 254.618 -18.3409 327.26 54.4318C365.124 92.354 432.35 85.1044 480.448 98.8175C646.286 146.115 617.608 371.129 535.693 479.903C461.771 578.049 301.595 600.235 193.986 551.933C99.421 509.498 32.8352 414.685 9.13569 315.564C6.76283 305.621 4.79755 295.576 3.31269 285.473C-9.14849 201.084 14.784 111.468 79.0261 53.0634V53.0489Z" fill="#8AC6E8"/>
<path d="M79.0261 53.0489C79.3027 52.8014 79.5647 52.5539 79.8412 52.3064C154.914 -15.2838 254.618 -18.3409 327.26 54.4318C365.124 92.354 432.35 85.1044 480.448 98.8175C646.286 146.115 617.608 371.129 535.693 479.903C461.771 578.049 301.595 600.235 193.986 551.933C99.421 509.498 32.8352 414.685 9.13569 315.564C6.76283 305.621 4.79755 295.576 3.31269 285.473C-9.14849 201.084 14.784 111.468 79.0261 53.0634V53.0489Z" fill="white" fill-opacity="0.65"/>
</svg>
