<svg width="466" height="469" viewBox="0 0 466 469" fill="none" xmlns="http://www.w3.org/2000/svg">
<path d="M332.191 19.105C313.99 10.1627 277.626 -2.74039 240.216 1.07902C210.706 4.09193 180.425 16.3513 159.057 28.1327C151.309 32.4103 143.838 37.1778 136.69 42.4066C132.38 45.5673 126.88 49.2299 122.027 52.1167C115.635 55.9185 106.301 61.938 97.8391 69.1797C91.7485 74.3919 86.1594 80.898 82.3013 85.7881C79.299 89.5934 73.9722 95.2646 68.6861 100.607C64.7323 104.603 59.8507 110.027 55.1676 116.541C20.9156 153.974 0 203.942 0 258.824C0 374.901 93.5647 469 208.982 469C265.339 469 316.484 446.565 354.072 410.092C358.365 406.882 361.995 403.793 364.778 401.269C365.672 400.46 366.474 399.517 367.281 398.57C368.295 397.378 369.317 396.178 370.535 395.223C371.865 394.181 373.403 393.401 374.895 392.645C376.012 392.078 377.102 391.525 378.06 390.886C389.022 383.564 410.901 366.619 430.362 337.384C442.549 319.075 456.044 286.234 461.434 264.619C478.75 195.188 440.565 116.29 440.565 116.29C440.565 116.29 428.543 82.0329 402.535 57.5186C389.121 44.8739 369.979 35.692 357.416 30.5547C349.721 27.408 340.07 22.9762 332.191 19.105Z" fill="white"/>
</svg>
