<svg width="641" height="672" viewBox="0 0 641 672" fill="none" xmlns="http://www.w3.org/2000/svg">
<path d="M287.471 70.1907C445.64 70.1907 573.941 204.616 573.941 370.539C573.941 536.461 445.64 670.887 287.471 670.887C129.301 670.887 1 536.461 1 370.539C1 204.616 129.301 70.1907 287.471 70.1907Z" stroke="#D4E1E9" stroke-width="2"/>
<path d="M606.029 166.176C605.122 166.597 605.122 166.598 605.122 166.598L605.124 166.602L605.131 166.616L605.158 166.676C605.183 166.73 605.22 166.81 605.269 166.918C605.366 167.132 605.511 167.453 605.699 167.877C606.076 168.725 606.626 169.983 607.319 171.621C608.703 174.897 610.657 179.692 612.928 185.758C617.47 197.891 623.279 215.105 628.345 235.423C638.482 276.08 645.62 329.066 633.764 378.615C626.369 409.521 607.845 456.5 591.151 482.64C564.471 524.419 534.479 548.624 519.479 559.066C518.215 559.946 516.777 560.706 515.238 561.52C514.978 561.658 514.714 561.797 514.449 561.939C512.642 562.901 510.747 563.959 509.066 565.332C507.476 566.631 506.134 568.214 504.878 569.746C504.733 569.922 504.59 570.098 504.448 570.272C503.332 571.637 502.272 572.935 501.093 574.048C491.403 583.203 474.267 597.543 453.791 606.657C426.693 618.718 392.147 618.679 376.499 616.611C339.964 611.783 301.51 598.125 277.837 589.246C275.857 588.503 273.835 587.477 271.615 586.349C270.941 586.007 270.25 585.656 269.535 585.3C266.499 583.789 263.127 582.244 259.247 581.192C255.248 580.108 250.366 579.433 245.413 578.749C244.96 578.686 244.506 578.623 244.052 578.56C238.597 577.801 233.126 576.982 228.504 575.564C212.715 570.695 197.618 563.633 183.613 554.567L183.08 555.389L183.612 554.566C159.069 538.688 132.529 507.811 113.071 480.59C76.0452 428.795 64.4261 355.175 61.001 323.098C60.8368 321.561 60.9526 319.851 61.0888 317.84C61.1177 317.413 61.1475 316.972 61.1758 316.517C61.3345 313.962 61.4299 311.052 60.9338 307.806C60.434 304.537 59.3993 300.962 58.3487 297.333L58.2015 296.824C57.0928 292.991 55.9856 289.085 55.407 285.255L54.4182 285.405L55.407 285.255C52.3549 265.055 49.9328 234.339 57.0828 207.902C64.5846 180.164 83.0572 157.178 95.2083 144.378C102.481 136.717 109.843 128.55 114.009 123.046C119.3 116.056 126.943 106.786 135.251 99.3758C146.831 89.0464 159.616 80.4503 168.384 75.0149C175.089 70.8578 182.681 65.5879 188.635 61.0371C198.433 53.5665 208.673 46.7551 219.293 40.6437C248.616 23.7925 290.134 6.28224 330.541 1.98216C381.73 -3.46525 431.548 14.9468 456.497 27.7233C467.35 33.2812 480.648 39.6462 491.26 44.1695C508.512 51.5229 534.701 64.6287 553.017 82.6234C570.801 100.096 583.821 121.062 592.4 137.682C596.688 145.989 599.861 153.199 601.961 158.331C603.011 160.897 603.792 162.942 604.311 164.344C604.57 165.045 604.763 165.585 604.892 165.949C604.956 166.13 605.003 166.268 605.035 166.36L605.07 166.463L605.079 166.488L605.081 166.494L605.081 166.495C605.081 166.495 605.081 166.495 605.844 166.238L605.081 166.495L605.099 166.548L605.122 166.597L606.029 166.176Z" stroke="#D4E1E9" stroke-width="2"/>
<path d="M183.613 554.566L183.613 554.566C159.069 538.688 132.529 507.811 113.071 480.59C76.0452 428.795 64.4261 355.174 61.001 323.098C60.8368 321.56 60.9526 319.851 61.0888 317.84C61.1177 317.413 61.1476 316.972 61.1758 316.517C61.3345 313.962 61.4299 311.052 60.9338 307.806C60.434 304.537 59.3993 300.962 58.3487 297.333C58.2996 297.163 58.2505 296.994 58.2015 296.824C57.0928 292.991 55.9856 289.085 55.407 285.255L54.7442 285.355L55.407 285.255C52.3549 265.055 49.9328 234.339 57.0828 207.902C61.2198 192.605 68.6967 178.751 76.6206 167.24C128.983 107.575 204.063 70.1907 287.472 70.1907C445.641 70.1907 573.942 204.616 573.942 370.539C573.942 455.436 540.337 532.087 486.333 586.708C477.297 593.741 466.158 601.152 453.791 606.657C426.694 618.718 392.147 618.679 376.499 616.611C339.964 611.783 301.51 598.125 277.837 589.246C275.857 588.503 273.836 587.477 271.616 586.349C270.942 586.007 270.25 585.656 269.535 585.3C266.499 583.789 263.127 582.244 259.247 581.192C255.248 580.107 250.366 579.433 245.413 578.748C244.96 578.686 244.506 578.623 244.052 578.56C238.598 577.801 233.127 576.982 228.505 575.564C212.716 570.695 197.618 563.633 183.613 554.566Z" stroke="#D4E1E9" stroke-width="2"/>
</svg>
