<svg width="360" height="480" viewBox="0 0 360 480" fill="none" xmlns="http://www.w3.org/2000/svg">
<g clip-path="url(#clip0_942_80)">
<path d="M195.96 214.924L195.802 214.876C188.351 210.693 187.527 200.768 187.63 192.603C187.79 180.154 187.966 167.278 190.678 154.696C193.741 140.606 199.83 128.954 208.293 121.01L208.978 120.385L209.79 120.838C211.493 121.77 212.964 123.264 214.06 125.133C215.675 119.543 219.884 114.15 226.03 109.962C228.961 107.954 232.116 106.247 235.168 104.594C239.918 102.023 244.4 99.5722 248.241 96.1143C249.764 94.7385 251.204 93.1638 252.567 91.6519C254.442 89.6056 256.375 87.4622 258.622 85.7044C264.787 80.8012 272.563 78.9942 280.087 77.2537C282.204 76.7546 284.313 76.2818 286.367 75.7056C294.527 73.4979 304.965 68.5898 308.168 57.7763L310.667 58.3766C308.689 68.5882 310.227 79.2822 311.74 89.593C312.425 94.279 313.122 99.113 313.522 103.884C316.03 135.313 304.071 167.229 281.521 189.256C257.903 212.309 225.175 222.18 196.094 215.052L195.936 215.003L195.96 214.924ZM209.351 123.56C201.631 131.157 196.084 142.082 193.219 155.252C190.562 167.562 190.4 180.299 190.221 192.626C190.119 200.041 190.791 208.966 196.911 212.506C225.097 219.356 256.827 209.724 279.744 187.349C301.756 165.849 313.418 134.707 310.961 104.043C310.59 99.3681 309.885 94.5605 309.209 89.9353C308.025 81.9198 306.827 73.6691 307.245 65.5145C303.132 71.3416 296.282 75.6578 287.048 78.1678C284.941 78.7277 282.824 79.2268 280.672 79.7441C273.426 81.4263 265.929 83.175 260.226 87.7019C258.125 89.3606 256.344 91.2915 254.461 93.3641C253.03 94.9124 251.573 96.5397 249.965 98.0046C245.911 101.685 241.083 104.318 236.402 106.852C233.411 108.495 230.299 110.158 227.48 112.085C221.807 115.957 215.787 122.724 215.886 130.144C216.077 130.924 216.168 131.934 216.189 132.893L213.622 133.166C213.435 132.185 213.317 131.167 213.305 130.182C212.732 127.464 211.266 125.019 209.335 123.613L209.351 123.56Z" fill="#D4E1E9"/>
<path d="M147.038 273.468C146.749 273.379 146.518 273.192 146.338 272.934C145.95 272.323 146.107 271.535 146.718 271.147C165.357 259.05 192.572 256.45 219.53 264.189L221.812 264.838C243.917 271.191 268.981 278.43 292.156 276.946C292.862 276.905 293.475 277.441 293.517 278.146C293.558 278.852 293.022 279.465 292.316 279.507C268.697 281.027 243.414 273.748 221.098 267.33L218.817 266.681C192.578 259.136 166.145 261.632 148.099 273.306C147.772 273.522 147.355 273.566 147.012 273.46L147.038 273.468Z" fill="#D4E1E9"/>
<path d="M228.172 296.219C218.084 293.096 209.246 286.868 200.718 280.85C192.208 274.868 184.203 269.214 175.089 266.393C173.219 265.814 171.361 265.383 169.523 265.074L167.431 264.744L168.677 263.051C183.031 243.538 210.569 234.861 233.592 242.537C245.039 246.398 254.674 253.595 263.981 260.546C273.483 267.615 282.383 274.296 292.532 277.034L295.462 277.825L292.844 279.382C273.083 291.188 253.655 301.453 233.171 297.507C231.507 297.194 229.797 296.751 228.138 296.237L228.172 296.219ZM175.856 263.917C185.364 266.861 193.919 272.886 202.208 278.743C210.594 284.658 219.238 290.769 228.931 293.77C230.511 294.259 232.116 294.669 233.701 294.958C252.442 298.566 270.623 289.532 289.061 278.643C279.616 275.402 271.266 269.18 262.447 262.611C253.274 255.788 243.807 248.701 232.773 244.996C211.547 237.761 186.02 245.445 172.032 262.935C173.303 263.213 174.583 263.552 175.848 263.943L175.856 263.917Z" fill="#D4E1E9"/>
<path d="M235.084 371.702C234.636 371.563 234.27 371.161 234.198 370.648C231.354 351.584 221.19 333.601 206.326 321.293C191.488 308.993 171.915 302.385 152.657 303.148C142.34 303.562 129.183 307.369 126.142 316.818C125.93 317.503 125.127 317.86 124.529 317.647C123.845 317.435 123.489 316.718 123.701 316.034C127.16 305.328 140.873 301.03 152.558 300.577C172.452 299.809 192.65 306.639 207.975 319.321C223.301 332.003 233.801 350.58 236.736 370.279C236.839 370.975 236.347 371.631 235.651 371.733C235.443 371.755 235.268 371.759 235.084 371.702Z" fill="#D4E1E9"/>
<path d="M236.986 377.399L235.32 374.949C228.313 364.67 217.698 356.909 205.477 353.126C201.078 351.764 196.561 350.972 192.073 350.737C190.283 350.645 188.461 350.658 186.673 350.653C183.411 350.653 180.036 350.647 176.71 350.108C170.549 349.125 165.533 346.215 163.037 342.065C160.532 337.942 160.508 333.172 160.469 328.542C160.451 326.083 160.449 323.571 160.05 321.225C158.77 313.613 152.862 306.963 145.329 304.631C144.433 304.354 143.487 304.148 142.585 303.984L139.75 303.539L141.961 301.712C154.925 290.976 174.714 286.164 191.232 289.776C208.029 293.418 223.655 305.875 232.005 322.257C239.818 337.578 241.831 356.154 237.701 374.532L237.065 377.424L236.986 377.399ZM206.217 350.642C218.043 354.303 228.394 361.52 235.708 371.086C238.903 354.238 236.779 337.417 229.658 323.407C221.653 307.68 206.727 295.757 190.631 292.275C175.735 289.02 158.037 292.95 145.674 302.025C154.273 304.456 161.083 312.106 162.526 320.779C162.947 323.334 162.969 325.967 162.989 328.514C163.016 332.996 163.037 337.216 165.161 340.703C167.26 344.181 170.995 345.915 173.734 346.763C174.788 347.089 175.918 347.352 177.047 347.528C180.18 348.037 183.302 348.022 186.617 348.038C188.465 348.033 190.306 348.054 192.157 348.136C196.88 348.357 201.581 349.207 206.217 350.642Z" fill="#D4E1E9"/>
<path d="M158.65 257.869C158.097 257.698 157.711 257.174 157.759 256.554C160.083 220.703 155.595 177.115 145.096 133.831C144.933 133.145 145.354 132.438 146.039 132.275C146.724 132.112 147.431 132.533 147.594 133.219C153.701 158.431 163.464 208.011 160.335 256.716C160.289 257.424 159.69 257.96 158.956 257.906C158.851 257.873 158.764 257.875 158.658 257.843L158.65 257.869Z" fill="#D4E1E9"/>
<path d="M159.323 237.238L159.698 236.026L158.354 235.985C158.307 228.12 152.953 221.267 148.291 216.187C147.451 215.263 146.577 214.357 145.711 213.425C141.079 208.528 136.296 203.468 133.803 197.068C129.171 185.272 133.353 172.134 137.618 160.784C141.923 149.301 146.353 137.51 143.198 126.258L140.76 117.537L145.539 125.222C147.932 129.052 149.97 132.54 151.88 135.787C155.791 142.453 159.158 148.171 163.912 154.261C170.898 163.207 178.038 173.989 177.787 186.266C177.614 195.217 173.472 203.374 169.455 211.222C165.489 219 161.388 227.024 160.937 236.034L159.706 236L159.331 237.211L159.323 237.238ZM146.779 132.216C147.344 142.233 143.517 152.45 140.061 161.655C135.945 172.619 131.908 185.195 136.225 196.143C138.542 202.085 143.147 206.974 147.609 211.675C148.475 212.607 149.35 213.513 150.216 214.445C153.69 218.233 157.515 222.939 159.525 228.381C161.137 221.867 164.201 215.888 167.189 210.059C171.238 202.105 175.071 194.574 175.231 186.225C175.464 174.751 168.613 164.433 161.888 155.857C157.027 149.647 153.605 143.825 149.658 137.09C148.726 135.532 147.784 133.913 146.779 132.216Z" fill="#D4E1E9"/>
<path d="M127.647 308.134C127.121 307.971 126.726 307.473 126.731 306.898C127.183 269.169 115.477 231.37 93.7419 200.511C93.3456 199.927 93.4767 199.13 94.0694 198.707C94.6539 198.311 95.4504 198.442 95.873 199.035C117.905 230.332 129.789 268.676 129.314 306.947C129.294 307.662 128.713 308.233 127.998 308.214C127.884 308.207 127.745 308.193 127.639 308.16L127.647 308.134Z" fill="#D4E1E9"/>
<path d="M125.089 268.665L123.306 267.709C112.637 261.895 100.979 254.706 98.0642 242.865C96.9168 238.18 97.2921 233.332 97.6893 228.692C97.8469 226.691 98.0288 224.612 98.0465 222.597C98.2509 212.24 94.9339 201.977 88.7633 193.659L84.0488 187.35L90.5119 191.834C113.256 207.592 126.883 236.95 125.194 266.648L125.081 268.691L125.089 268.665ZM94.7861 198.352C98.7222 205.776 100.778 214.148 100.611 222.611C100.569 224.705 100.405 226.82 100.231 228.873C99.8521 233.547 99.5019 237.941 100.545 242.218C103.067 252.438 112.677 258.876 122.704 264.434C123.506 238.907 112.834 213.897 94.7779 198.379L94.7861 198.352Z" fill="#D4E1E9"/>
<path d="M116.177 354.229C115.234 351.772 114.345 349.332 113.498 346.847C110.288 341.178 104.384 335.915 95.4896 330.708C94.1469 329.917 92.7698 329.144 91.419 328.38C82.978 323.573 74.2372 318.616 68.8794 310.376C62.6644 300.803 62.3765 289.053 62.088 277.678L62.0023 274.505C61.8351 269.172 59.2886 263.505 56.8249 258.038C53.7836 251.266 50.9079 244.891 52.2196 238.976L52.293 238.739L52.419 238.519C52.5288 238.35 52.6041 238.201 52.6793 238.051C53.2024 236.827 54.1306 236.999 54.4203 237.089C55.1578 237.317 55.3089 237.855 55.6676 239.12L56.0162 240.325C57.9324 247.095 64.3251 252.364 75.5143 256.406C76.6569 256.817 77.7732 257.22 78.9503 257.614C86.6834 260.325 94.7062 263.126 100.041 269.483C106.737 277.502 107.022 288.327 107.3 298.804C107.342 300.347 107.392 301.864 107.451 303.354C107.999 316.685 110.853 330.962 115.9 345.801C117.296 348.283 118.216 350.906 118.692 353.564L116.23 354.245L116.177 354.229ZM54.6093 243.844C55.097 247.862 57.0942 252.32 59.1823 256.949C61.747 262.65 64.3945 268.55 64.5729 274.406L64.6587 277.579C64.9396 288.605 65.2018 299.972 71.0287 308.934C76.0529 316.667 84.4939 321.474 92.696 326.12C94.0731 326.892 95.4421 327.692 96.7848 328.482C102.844 332.032 107.587 335.637 111.104 339.381C107.408 326.893 105.29 314.808 104.827 303.436C104.777 301.92 104.727 300.403 104.693 298.834C104.425 288.793 104.141 278.43 98.0089 271.105C93.1476 265.271 85.4591 262.602 78.0684 259.996C76.9258 259.585 75.7487 259.191 74.606 258.78C64.1199 254.985 57.5603 250.068 54.583 243.836L54.6093 243.844Z" fill="#D4E1E9"/>
<path d="M116.941 355.678C116.493 355.539 116.119 355.163 116.047 354.65C114.135 343.206 106.617 334.297 98.6604 324.849C95.1342 320.669 91.509 316.343 88.4294 311.839C83.4127 304.456 80.0975 295.492 76.8851 286.849C72.8676 276.051 69.064 265.868 62.3402 258.591C56.5634 252.357 54.6252 246.591 53.052 241.976C52.7817 241.171 52.5296 240.4 52.2431 239.648C51.9929 238.964 52.361 238.241 53.0183 237.983C53.7019 237.732 54.425 238.101 54.6833 238.758C54.9617 239.537 55.2401 240.316 55.5022 241.147C57.0755 245.762 58.828 251.009 64.2387 256.841C71.3105 264.485 75.3825 275.386 79.3072 285.924C82.4731 294.438 85.7582 303.219 90.5868 310.371C93.5774 314.79 97.1663 319.047 100.648 323.184C108.479 332.478 116.561 342.081 118.575 354.221C118.704 354.925 118.212 355.581 117.509 355.709C117.3 355.731 117.099 355.727 116.915 355.67L116.941 355.678Z" fill="#D4E1E9"/>
<path d="M124.874 446.312C124.426 446.174 124.078 445.806 123.98 445.285C116.255 400.406 110.431 356.751 123.682 315.999C137.302 274.149 169.189 241.822 200.025 210.555C208.518 201.956 217.274 193.064 225.49 184.148C263.711 142.641 290.789 101.233 308.207 57.5575C308.471 56.889 309.224 56.6024 309.874 56.8326C310.543 57.0973 310.856 57.858 310.599 58.5002C293.057 102.484 265.819 144.13 227.376 185.887C219.153 194.829 210.362 203.739 201.861 212.364C171.237 243.408 139.572 275.487 126.123 316.783C113.044 356.982 118.834 400.281 126.517 444.829C126.645 445.533 126.18 446.197 125.45 446.317C125.233 446.366 125.04 446.335 124.856 446.278L124.874 446.312Z" fill="#D4E1E9"/>
</g>
<defs>
<clipPath id="clip0_942_80">
<rect width="243.88" height="426.742" fill="white" transform="translate(126.202) rotate(17.2016)"/>
</clipPath>
</defs>
</svg>
