<svg width="1920" height="52" viewBox="0 0 1920 52" fill="none" xmlns="http://www.w3.org/2000/svg">
<path d="M0 34.6091C0 34.6091 113.409 19.0478 186.75 18.2592C259.909 17.4725 300.344 29.573 373.5 30.5216C507.546 32.2597 581.224 -5.24857 715 1.90922C803.863 6.6639 830 50.9591 899.5 34.6091C911.662 31.7479 938.458 20.9464 965 18.2592C1006.55 14.0527 1050.6 27.0529 1071 31.3391C1147 47.3095 1228.35 1.13733 1364 10.0842C1451.04 15.8252 1496.69 41.3381 1584 42.7841C1682.27 44.4117 1734.97 0.100335 1832.5 10.0842C1867.28 13.6445 1920 26.4341 1920 26.4341" stroke="#D4E1E9" stroke-width="2"/>
<path d="M1920 18.2592C1920 18.2592 1806.59 35.3978 1733.25 34.6092C1660.09 33.8225 1619.66 21.3982 1546.5 22.3467C1412.45 24.0848 1338.78 2.92647 1205 10.0843C1116.14 14.8389 1090.8 12.0246 1020.5 26.4342C994.558 31.7518 981.379 39.1798 955 42.7841C914.142 48.3668 869.397 35.228 849 39.5142C773 55.4845 691.646 -7.03756 556 1.90929C468.959 7.6503 423.306 49.5131 336 50.9591C237.726 52.5867 185.033 5.00539 87.5 14.9892C52.7195 18.5495 0 18.2592 0 18.2592" stroke="#D4E1E9" stroke-width="2"/>
</svg>
