<svg width="181" height="210" viewBox="0 0 181 210" fill="none" xmlns="http://www.w3.org/2000/svg">
<path d="M133.3 -41.0719C206.422 -41.0719 265.601 14.9411 265.601 83.9196C265.601 152.898 206.422 208.911 133.3 208.911C60.179 208.911 1 152.898 1 83.9196C1 14.9411 60.179 -41.0719 133.3 -41.0719Z" stroke="#D4E1E9" stroke-width="2"/>
<path d="M44.5006 -10.1993L43.8119 -10.9243L44.5006 -10.1993C47.8736 -13.403 51.3077 -16.8364 53.2623 -19.1647C55.7051 -22.0744 59.2222 -25.9187 63.0341 -28.9845C68.3704 -33.2763 74.2701 -36.8536 78.3233 -39.1193C81.4473 -40.8655 84.9816 -43.0775 87.7555 -44.9893C92.2805 -48.1 97.0101 -50.9366 101.916 -53.4819C115.476 -60.508 134.664 -67.8017 153.319 -69.5916C176.937 -71.8578 199.947 -64.1942 211.47 -58.8733C216.51 -56.5463 222.687 -53.8804 227.621 -51.9842C235.61 -48.9138 247.68 -43.4613 256.096 -36.0055C264.281 -28.7546 270.282 -20.0459 274.241 -13.1309C276.218 -9.67691 277.681 -6.67916 278.648 -4.54794C279.132 -3.48253 279.491 -2.63428 279.729 -2.05455C279.848 -1.7647 279.936 -1.54203 279.995 -1.39297C280.024 -1.31844 280.045 -1.26231 280.059 -1.2254L280.075 -1.18454L280.079 -1.1751L280.079 -1.17316L280.1 -1.11767L280.127 -1.06507L280.154 -1.07907C280.127 -1.06506 280.127 -1.06504 280.127 -1.065L280.128 -1.06385L280.131 -1.05833L280.143 -1.03445L280.193 -0.935844C280.237 -0.847725 280.303 -0.715103 280.39 -0.539589C280.563 -0.18856 280.816 0.333984 281.136 1.01512C281.774 2.37746 282.677 4.37381 283.726 6.90082C285.824 11.9559 288.509 19.1289 290.85 27.5941C295.538 44.5476 298.818 66.5753 293.361 87.1372C289.948 100.001 281.385 119.573 273.692 130.435C261.377 147.823 247.532 157.897 240.616 162.238C240.058 162.588 239.422 162.891 238.707 163.232C238.585 163.29 238.461 163.349 238.335 163.41C237.497 163.813 236.578 164.273 235.755 164.88C234.969 165.459 234.314 166.158 233.731 166.799C233.664 166.873 233.597 166.946 233.531 167.019C233.011 167.593 232.545 168.107 232.027 168.548C227.556 172.356 219.661 178.312 210.239 182.093C197.782 187.092 181.854 187.082 174.64 186.222C157.754 184.21 139.966 178.515 128.991 174.804C128.1 174.502 127.195 174.088 126.171 173.62C125.855 173.475 125.528 173.325 125.187 173.172C123.769 172.536 122.172 171.875 120.329 171.424C118.445 170.964 116.153 170.678 113.864 170.393C113.652 170.367 113.44 170.34 113.228 170.314C110.694 169.996 108.192 169.657 106.089 169.075C98.8087 167.051 91.8484 164.115 85.3935 160.348L85.3933 160.347C74.1012 153.76 61.847 140.917 52.8373 129.553C35.7779 108.036 30.4042 77.4034 28.8183 64.0119C28.7499 63.4341 28.7977 62.793 28.8602 61.9553C28.8738 61.7722 28.8882 61.5796 28.9022 61.3762C28.9768 60.293 29.0252 59.018 28.7827 57.5876C28.5433 56.1756 28.0509 54.6424 27.5685 53.1401C27.5439 53.0636 27.5194 52.9871 27.4949 52.9108C26.9791 51.3027 26.4799 49.7109 26.2201 48.1604L25.2338 48.3256L26.2201 48.1604C24.8092 39.7407 23.7059 27.0144 26.9797 16.1003C30.4121 4.6574 38.8858 -4.86621 44.5006 -10.1993Z" stroke="#D4E1E9" stroke-width="2"/>
<path d="M85.3935 160.348L85.3933 160.347C74.1012 153.76 61.847 140.917 52.8373 129.553C35.7779 108.036 30.4042 77.4034 28.8183 64.0119C28.7499 63.4341 28.7977 62.793 28.8602 61.9553C28.8738 61.7721 28.8882 61.5795 28.9022 61.3761C28.9768 60.293 29.0252 59.0179 28.7827 57.5876L27.7967 57.7548L28.7827 57.5876C28.5433 56.1756 28.0509 54.6423 27.5685 53.1401C27.544 53.0635 27.5194 52.9871 27.4949 52.9107C26.9791 51.3026 26.4799 49.7108 26.2201 48.1603L25.2342 48.3255L26.2201 48.1603C24.8092 39.7407 23.7059 27.0143 26.9797 16.1003C28.8665 9.81009 32.2807 4.09204 35.9211 -0.681072C60.0952 -25.5043 94.766 -41.0719 133.301 -41.0719C206.422 -41.0719 265.601 14.9411 265.601 83.9195C265.601 119.212 250.114 151.092 225.195 173.83C221.033 176.748 215.914 179.815 210.239 182.093C197.782 187.092 181.854 187.082 174.64 186.222C157.754 184.21 139.966 178.515 128.991 174.804C128.1 174.502 127.195 174.088 126.172 173.62C125.856 173.475 125.528 173.325 125.187 173.172C123.769 172.535 122.172 171.875 120.329 171.424C118.446 170.964 116.153 170.678 113.865 170.393C113.652 170.367 113.44 170.34 113.228 170.314C110.694 169.996 108.192 169.657 106.089 169.075C98.8087 167.051 91.8484 164.115 85.3935 160.348Z" stroke="#D4E1E9" stroke-width="2"/>
</svg>
