<svg width="500" height="730" viewBox="0 0 500 730" fill="none" xmlns="http://www.w3.org/2000/svg">
<g clip-path="url(#clip0_1000_6306)">
<rect width="500" height="730" rx="25" fill="#EDF6FC"/>
<g clip-path="url(#clip1_1000_6306)" filter="url(#filter0_d_1000_6306)">
<path d="M606.691 243.416C606.691 243.416 647.278 348.215 590.242 453.771C533.22 559.342 415.727 615.068 321.7 662.744C227.674 710.419 130.037 687.2 83.642 609.114C37.2473 531.028 100.893 475.287 100.965 363.937C101.038 252.587 84.2971 223.109 144.58 129.038C204.862 34.968 352.839 14.1508 464.698 83.9247C576.558 153.699 606.691 243.416 606.691 243.416Z" fill="white"/>
<path d="M121.026 125.049C121.303 124.801 121.565 124.554 121.841 124.306C196.914 56.7162 296.618 53.6591 369.26 126.432C407.124 164.354 474.35 157.104 522.448 170.818C688.286 218.115 659.608 443.129 577.693 551.903C503.771 650.049 343.595 672.235 235.986 623.933C141.421 581.498 74.8352 486.685 51.1357 387.564C48.7628 377.621 46.7976 367.576 45.3127 357.473C32.8515 273.084 56.784 183.468 121.026 125.063V125.049Z" fill="#8AC6E8"/>
<path d="M121.026 125.049C121.303 124.801 121.565 124.554 121.841 124.306C196.914 56.7162 296.618 53.6591 369.26 126.432C407.124 164.354 474.35 157.104 522.448 170.818C688.286 218.115 659.608 443.129 577.693 551.903C503.771 650.049 343.595 672.235 235.986 623.933C141.421 581.498 74.8352 486.685 51.1357 387.564C48.7628 377.621 46.7976 367.576 45.3127 357.473C32.8515 273.084 56.784 183.468 121.026 125.063V125.049Z" fill="white" fill-opacity="0.65"/>
<path d="M608.382 221.028C608.382 221.028 603.854 205.306 573.327 205.218C542.8 205.131 524.909 232.775 524.909 232.775C524.909 232.775 512.113 220.736 496.639 228.772C481.179 236.808 481.222 248.643 481.222 248.643L354.136 258.833L630.393 258.892" stroke="#263238" stroke-width="1.49048" stroke-linecap="round" stroke-linejoin="round"/>
<path d="M30.7267 325.463C30.7267 325.463 35.254 309.741 65.781 309.653C96.308 309.566 114.199 337.211 114.199 337.211C114.199 337.211 126.995 325.172 142.47 333.207C157.93 341.243 157.886 345.799 157.886 345.799H197.628" stroke="#263238" stroke-width="1.49048" stroke-linecap="round" stroke-linejoin="round"/>
<path d="M655.271 317.835C655.271 317.835 650.743 302.112 620.216 302.025C589.689 301.938 571.798 329.582 571.798 329.582C571.798 329.582 559.002 317.543 543.527 325.579C528.067 333.615 528.111 338.171 528.111 338.171H488.369" stroke="#263238" stroke-width="1.49048" stroke-linecap="round" stroke-linejoin="round"/>
<path d="M638.79 439.142L595.7 436.231C595.7 436.231 601.829 424.555 587.999 410.726C574.169 396.911 560.107 406.126 560.107 406.126C560.107 406.126 546.539 364.084 506.958 369.019C467.376 373.954 463.198 408.513 463.198 408.513C463.198 408.513 454.74 400.026 437.504 405.587C420.268 411.148 417.662 432.504 421.928 441.486C421.928 441.486 402.304 444.936 400.994 460.09C400.994 460.09 399.786 446.683 381.312 446.275C362.839 445.868 358.239 466.597 358.239 466.597H337.509" stroke="#263238" stroke-width="1.49048" stroke-linecap="round" stroke-linejoin="round"/>
<path d="M72.2591 176.758L132.352 169.392C132.352 169.392 134.114 152.185 152.587 153.044C152.587 153.044 156.663 136.347 176.534 131.295C196.405 126.244 206.77 147.134 206.77 147.134C206.77 147.134 217.295 143.858 227.543 150.307C237.064 156.305 233.265 167.703 233.265 167.703L338.093 178.214C338.093 178.214 184.119 181.722 86.2197 178.447" stroke="#263238" stroke-width="1.49048" stroke-linecap="round" stroke-linejoin="round"/>
<path d="M132.279 406.228L235.826 401.569C247.21 367.126 290.271 381.524 290.271 381.524C306.575 345.8 344.628 362.832 344.628 362.832C344.628 362.832 363.99 328.403 402.174 335.609C440.358 342.815 448.205 373.284 448.205 373.284L474.568 374.288" stroke="#263238" stroke-width="1.49048" stroke-linecap="round" stroke-linejoin="round"/>
<path d="M88.5048 483.309C93.8038 492.844 99.5103 502.146 105.639 511.172C108.405 515.277 111.258 519.295 114.17 523.269V523.284C119.381 530.315 124.84 537.157 130.547 543.78C132.366 545.92 134.23 548.031 136.122 550.113C140.446 554.902 144.9 559.546 149.486 564.059C150.345 564.903 151.189 565.733 152.048 566.563C176.621 590.233 204.775 609.93 235.972 623.919C293.474 649.744 366.014 655.422 432.367 640.122C436.253 639.219 440.126 638.258 443.969 637.21C446.793 636.439 449.603 635.638 452.398 634.794C455.411 633.891 458.41 632.93 461.38 631.926C462.835 631.446 464.291 630.936 465.747 630.427C472.196 628.156 478.557 625.652 484.773 622.944C485.472 622.638 486.156 622.333 486.841 622.027C508.138 612.535 527.936 600.453 545.391 585.779" stroke="#263238" stroke-width="1.49048" stroke-miterlimit="10"/>
<path d="M138.175 432.081C138.175 432.081 114.33 440.146 117.853 458.357C117.853 458.357 145.352 463.467 138.175 432.081Z" fill="#263238"/>
<path d="M91.1689 448.705C91.1689 448.705 72.9284 433.769 53.3487 448.734C53.3487 448.734 72.3753 467.557 91.1689 448.705Z" fill="#263238"/>
<path d="M42.8099 399.21C42.8099 399.21 47.8323 435.545 77.5586 417.683C77.5586 417.683 60.7739 394.275 42.8099 399.21Z" fill="#263238"/>
<path d="M77.3529 369.542C77.3529 369.542 55.3711 389.704 79.3472 405.79C79.3472 405.79 93.4389 386.399 77.3529 369.542Z" fill="#263238"/>
<path d="M116.645 393.212C116.645 393.212 88.2724 397.419 94.7505 423.026C94.7505 423.026 122.701 417.115 116.645 393.212Z" fill="#263238"/>
<path d="M116.411 486.904C116.411 486.904 121.274 468.241 102.349 444.338C83.4243 420.434 73.5834 398.758 75.869 381.158" stroke="#263238" stroke-width="1.49048" stroke-linecap="round" stroke-linejoin="round"/>
<path d="M109.292 402.398C109.292 402.398 94.3706 413.186 93.0459 431.688" stroke="#263238" stroke-width="1.49048" stroke-linecap="round" stroke-linejoin="round"/>
<path d="M55.1387 411.147C55.1387 411.147 68.0221 421.774 83.9043 416.271" stroke="#263238" stroke-width="1.49048" stroke-linecap="round" stroke-linejoin="round"/>
<path d="M64.907 449.812C64.907 449.812 93.3814 450.743 103.31 445.575" stroke="#263238" stroke-width="1.49048" stroke-linecap="round" stroke-linejoin="round"/>
<path d="M132.279 442.169C132.279 442.169 124.229 457.6 112.234 460.409" stroke="#263238" stroke-width="1.49048" stroke-linecap="round" stroke-linejoin="round"/>
<path d="M77.1641 398.7C75.7374 392.979 75.1114 387.011 75.8684 381.144" stroke="white" stroke-width="1.49048" stroke-linecap="round" stroke-linejoin="round"/>
<path d="M109.292 402.398C103.571 406.737 98.9271 412.894 96.0884 419.46" stroke="white" stroke-width="1.49048" stroke-linecap="round" stroke-linejoin="round"/>
<path d="M55.14 411.147C59.5946 414.626 65.2283 416.883 70.8184 417.611" stroke="white" stroke-width="1.49048" stroke-linecap="round" stroke-linejoin="round"/>
<path d="M64.9074 449.812C71.895 450.016 78.9117 449.855 85.8701 449.273" stroke="white" stroke-width="1.49048" stroke-linecap="round" stroke-linejoin="round"/>
<path d="M132.279 442.169C129.572 447.046 126.049 451.631 121.871 455.329" stroke="white" stroke-width="1.49048" stroke-linecap="round" stroke-linejoin="round"/>
<path d="M505.677 532.803C505.677 532.803 528.038 544.376 521.807 561.845C521.807 561.845 493.842 562.762 505.677 532.803Z" fill="#263238"/>
<path d="M181.641 530.096C163.925 538.976 155.554 556.561 152.061 566.577C151.202 565.747 150.357 564.917 149.499 564.073C144.913 559.56 140.458 554.916 136.135 550.127C134.242 548.045 132.379 545.934 130.559 543.794C129.715 540.417 128.754 536.851 127.677 533.168C126.745 529.979 125.712 526.704 124.591 523.385C123.382 519.789 122.072 516.15 120.631 512.525C119.394 509.395 118.069 506.265 116.642 503.194C115.157 499.991 113.949 497.021 112.988 494.314C108.971 482.944 109.233 475.811 111.358 472.186C113.775 468.081 118.564 468.431 122.247 472.186C122.975 472.929 123.703 473.86 124.431 474.938C127.153 478.985 129.89 485.07 132.233 491.067C136.004 500.661 138.755 509.977 138.755 509.977C138.755 509.977 134.461 478.563 135.669 461.763C136.528 449.972 137.78 439.403 140.094 431.906C142.613 423.768 146.398 419.255 152.323 420.726C160.591 422.778 156.603 442.547 153.982 469.319C153.065 478.621 152.323 488.782 152.323 499.336C152.323 506.542 152.658 513.937 153.531 521.376C153.531 521.376 153.982 520.634 154.754 519.294C158.699 512.438 171.218 489.815 175.964 470.119C181.627 446.594 197.363 456.464 192.327 477.529C187.29 498.594 166.531 510.662 158.83 533.546C158.83 533.546 185.383 508.085 194.175 517.766C199.125 523.225 186.911 527.446 181.627 530.096H181.641Z" fill="#C4C6ED" stroke="#263238" stroke-width="1.49048" stroke-linecap="round" stroke-linejoin="round"/>
<path opacity="0.2" d="M181.641 530.096C163.925 538.976 155.554 556.561 152.061 566.577C151.202 565.747 150.357 564.917 149.499 564.073C144.913 559.56 140.458 554.916 136.135 550.127C134.242 548.045 132.379 545.934 130.559 543.794C129.715 540.417 128.754 536.851 127.677 533.168C126.745 529.979 125.712 526.704 124.591 523.385C123.382 519.789 122.072 516.15 120.631 512.525C119.394 509.395 118.069 506.265 116.642 503.194C115.157 499.991 113.949 497.021 112.988 494.314C108.971 482.944 109.233 475.811 111.358 472.186C113.775 468.081 118.564 468.431 122.247 472.186C122.975 472.929 123.703 473.86 124.431 474.938C127.153 478.985 129.89 485.07 132.233 491.067C136.004 500.661 138.755 509.977 138.755 509.977C138.755 509.977 134.461 478.563 135.669 461.763C136.528 449.972 137.78 439.403 140.094 431.906C142.613 423.768 146.398 419.255 152.323 420.726C160.591 422.778 156.603 442.547 153.982 469.319C153.065 478.621 152.323 488.782 152.323 499.336C152.323 506.542 152.658 513.937 153.531 521.376C153.531 521.376 153.982 520.634 154.754 519.294C158.699 512.438 171.218 489.815 175.964 470.119C181.627 446.594 197.363 456.464 192.327 477.529C187.29 498.594 166.531 510.662 158.83 533.546C158.83 533.546 185.383 508.085 194.175 517.766C199.125 523.225 186.911 527.446 181.627 530.096H181.641Z" fill="black" stroke="#263238" stroke-width="1.49048" stroke-miterlimit="10"/>
<path d="M162.528 492.669C158.874 501.374 156.414 510.545 154.769 519.294C150.3 542.994 151.813 563.622 151.813 563.622L149.499 564.073C144.913 559.56 140.459 554.916 136.135 550.127C134.243 548.045 132.379 545.934 130.56 543.794C124.853 537.171 119.394 530.329 114.182 523.298V523.283C111.271 519.309 108.418 515.291 105.652 511.186C112.727 514.199 120.384 519.964 124.606 523.385C126.629 525.015 127.866 526.122 127.866 526.122C125.974 521.114 123.47 516.645 120.646 512.525C110.703 498.026 96.8882 487.574 92.3899 471.327C86.5961 450.452 101.969 440.029 108.476 463.35C109.291 466.261 110.281 469.217 111.373 472.186C119.132 493.004 132.729 513.777 132.729 513.777C129.191 502.349 126.338 488.578 124.46 474.952C120.166 443.77 120.952 413.301 130.356 413.141C137.533 413.01 140.066 419.619 140.138 431.906C140.197 437.743 139.687 444.877 138.857 453.189C136.295 478.941 143.603 516.004 143.603 516.004C143.603 516.004 147.723 481.765 154.026 469.319C154.681 468.037 155.351 466.989 156.035 466.232C163.445 458.095 176.11 460.366 162.557 492.669H162.528Z" fill="#C4C6ED" stroke="#263238" stroke-width="1.49048" stroke-linecap="round" stroke-linejoin="round"/>
<path d="M155.335 491.184C143.835 518.45 143.849 557.915 143.849 557.915C143.849 557.915 126.671 479.814 130.049 446.71" stroke="#263238" stroke-width="1.49048" stroke-linecap="round" stroke-linejoin="round"/>
<path d="M103.236 476.568C103.236 476.568 121.505 513.398 137.854 527.359" stroke="#263238" stroke-width="1.49048" stroke-linecap="round" stroke-linejoin="round"/>
<path d="M141.55 546.808C138.929 542.746 133.558 537.84 127.677 533.167C123.135 529.572 118.302 526.107 114.182 523.297V523.283" stroke="#263238" stroke-width="1.49048" stroke-linecap="round" stroke-linejoin="round"/>
<path d="M498.123 610.09C498.123 610.09 498.094 610.133 498.065 610.148C496.129 612.244 493.858 614.472 491.267 616.815C489.054 618.795 486.885 620.862 484.789 622.959C478.573 625.666 472.211 628.17 465.762 630.441C464.306 630.951 462.851 631.46 461.395 631.94C458.425 632.945 455.426 633.906 452.413 634.808C449.618 635.653 446.808 636.453 443.984 637.225C440.141 638.273 436.269 639.234 432.382 640.136C430.664 632.101 427.287 623.497 420.925 615.956C417.111 611.444 407.547 602.753 414.243 599.681C426.137 594.237 440.519 628.097 440.519 628.097C442.456 604.034 428.116 584.76 431.785 563.419C435.439 542.077 453.796 539.195 449.734 563.055C446.342 583.027 448.948 608.75 449.88 616.611C450.055 618.14 450.186 618.999 450.186 618.999C453.912 612.521 457.115 605.854 459.954 599.244C459.954 599.23 459.954 599.215 459.954 599.215C464.117 589.52 467.422 579.883 470.246 570.974C478.383 545.324 482.489 525.584 490.903 526.952C496.93 527.942 498.633 533.576 497.745 542.048C496.915 549.851 493.916 560.056 490.058 571.236C484.643 586.9 468.746 613.496 468.251 614.326C468.63 613.875 474.671 606.625 481.673 599.521C486.201 594.935 491.107 590.423 495.197 587.788C496.289 587.074 497.323 586.507 498.283 586.099C503.16 584.105 507.688 585.662 508.299 590.394C508.823 594.557 506.261 601.224 498.094 610.09H498.123Z" fill="#C4C6ED" stroke="#263238" stroke-width="1.49048" stroke-linecap="round" stroke-linejoin="round"/>
<path opacity="0.2" d="M498.123 610.09C498.123 610.09 498.094 610.133 498.065 610.148C496.129 612.244 493.858 614.472 491.267 616.815C489.054 618.795 486.885 620.862 484.789 622.959C478.573 625.666 472.211 628.17 465.762 630.441C464.306 630.951 462.851 631.46 461.395 631.94C458.425 632.945 455.426 633.906 452.413 634.808C449.618 635.653 446.808 636.453 443.984 637.225C440.141 638.273 436.269 639.234 432.382 640.136C430.664 632.101 427.287 623.497 420.925 615.956C417.111 611.444 407.547 602.753 414.243 599.681C426.137 594.237 440.519 628.097 440.519 628.097C442.456 604.034 428.116 584.76 431.785 563.419C435.439 542.077 453.796 539.195 449.734 563.055C446.342 583.027 448.948 608.75 449.88 616.611C450.055 618.14 450.186 618.999 450.186 618.999C453.912 612.521 457.115 605.854 459.954 599.244C459.954 599.23 459.954 599.215 459.954 599.215C464.117 589.52 467.422 579.883 470.246 570.974C478.383 545.324 482.489 525.584 490.903 526.952C496.93 527.942 498.633 533.576 497.745 542.048C496.915 549.851 493.916 560.056 490.058 571.236C484.643 586.9 468.746 613.496 468.251 614.326C468.63 613.875 474.671 606.625 481.673 599.521C486.201 594.935 491.107 590.423 495.197 587.788C496.289 587.074 497.323 586.507 498.283 586.099C503.16 584.105 507.688 585.662 508.299 590.394C508.823 594.557 506.261 601.224 498.094 610.09H498.123Z" fill="black" stroke="#263238" stroke-width="1.49048" stroke-miterlimit="10"/>
<path d="M526.116 597.075C516.275 609.376 500.932 613.831 486.855 622.041C486.171 622.347 485.486 622.653 484.788 622.959C478.572 625.666 472.21 628.17 465.761 630.441C464.305 630.951 462.85 631.46 461.394 631.94C458.424 632.945 455.425 633.906 452.412 634.808C449.617 635.653 446.807 636.453 443.983 637.225C446.079 631.169 448.205 624.152 449.879 616.611C451.815 607.921 453.154 598.517 453.227 589.069C453.489 554.044 466.023 556.94 469.633 567.335C469.954 568.31 470.157 569.533 470.259 570.974C471.147 584.687 461.758 617.005 461.481 617.965C462.136 617.019 482.895 586.419 490.552 562.108C493.071 554.145 495.4 547.391 497.758 542.048C502.664 530.781 507.585 525.7 514.135 528.655C522.724 532.498 511.442 560.813 495.225 587.773C488.136 599.565 480.1 611.094 472.356 620.207C472.981 619.785 493.245 606.232 508.342 590.394C510.511 588.093 512.592 585.764 514.485 583.406C529.654 564.539 539.669 580.174 526.131 597.075H526.116Z" fill="#C4C6ED" stroke="#263238" stroke-width="1.49048" stroke-linecap="round" stroke-linejoin="round"/>
<path d="M461.394 631.94C461.671 631.518 461.947 631.096 462.238 630.674C468.352 621.357 475.296 610.439 481.687 599.521C490.218 584.949 497.788 570.362 501.15 559.604" stroke="#263238" stroke-width="1.49048" stroke-linecap="round" stroke-linejoin="round"/>
<path d="M460.403 590.539C460.403 593.378 460.229 596.289 459.967 599.215C459.967 599.215 459.967 599.23 459.967 599.244C458.817 611.633 455.599 624.458 452.426 634.808" stroke="#263238" stroke-width="1.49048" stroke-linecap="round" stroke-linejoin="round"/>
<path d="M514.049 597.614C514.049 597.614 482.765 624.283 462.224 630.674" stroke="#263238" stroke-width="1.49048" stroke-linecap="round" stroke-linejoin="round"/>
<path d="M465.762 630.44C391.271 656.789 303.33 654.169 235.987 623.933C197.817 606.814 164.204 581.163 136.137 550.127L161.205 524.331H188.777L201.02 485.142C201.02 485.142 395.813 482.333 413.602 483.396C431.377 484.473 444.639 509.643 444.639 509.643L423.094 543.911L451.626 586.244L465.762 630.44Z" fill="#A2ADB4"/>
<mask id="mask0_1000_6306" style="mask-type:luminance" maskUnits="userSpaceOnUse" x="136" y="483" width="330" height="166">
<path d="M465.762 630.44C391.271 656.789 303.33 654.169 235.987 623.933C197.817 606.813 164.204 581.163 136.137 550.127L161.205 524.331H188.777L201.02 485.142C201.02 485.142 395.813 482.333 413.602 483.395C431.377 484.473 444.639 509.642 444.639 509.642L423.094 543.911L451.626 586.244L465.762 630.44Z" fill="white"/>
</mask>
<g mask="url(#mask0_1000_6306)">
<path opacity="0.3" d="M393.513 500.413C366.801 504.446 324.264 493.513 324.264 493.513C324.264 493.513 292.776 503.281 253.267 500.413C227.195 498.521 215.286 490.354 210.206 485.012C249.002 484.473 398.143 482.479 413.603 483.396C415.102 483.483 416.587 483.745 418.014 484.167L405.611 487.894C405.611 487.894 420.241 496.381 393.513 500.413Z" fill="black"/>
<path opacity="0.3" d="M188.779 524.331C188.779 524.331 235.873 548.103 237.066 546.808C238.26 545.512 268.583 535.599 268.583 535.599L287.828 541.64L268.583 517.242L217.268 515.684L201.022 485.157L188.779 524.346V524.331Z" fill="black"/>
<path opacity="0.3" d="M452.646 589.433L423.094 607.673L364.005 588.443L423.094 543.911L451.626 586.244L452.646 589.433Z" fill="black"/>
<path opacity="0.3" d="M410.618 644.372C350.481 653.965 287.258 646.949 235.987 623.933C197.817 606.814 164.204 581.163 136.137 550.127L161.205 524.331L185.385 576.767H257.415L306.576 619.464L373.395 622.579L410.618 644.372Z" fill="black"/>
<path d="M310.434 547.318L342.694 552.325L372.449 539.209L378.592 517.227L420.241 512.976L444.64 509.643" stroke="#263238" stroke-width="1.49048" stroke-linecap="round" stroke-linejoin="round"/>
<path d="M268.581 517.227L217.266 515.669L201.02 485.142" stroke="#263238" stroke-width="1.49048" stroke-linecap="round" stroke-linejoin="round"/>
<path d="M257.416 576.767L306.577 619.464L341.922 607.673L338.094 583.027L353.845 583.507" stroke="#263238" stroke-width="1.49048" stroke-linecap="round" stroke-linejoin="round"/>
<path d="M453.229 589.068L423.095 607.673L420.241 622.565" stroke="#263238" stroke-width="1.49048" stroke-linecap="round" stroke-linejoin="round"/>
</g>
<path d="M465.762 630.44C391.271 656.789 303.33 654.169 235.987 623.933C197.817 606.814 164.204 581.163 136.137 550.127L161.205 524.331H188.777L201.02 485.142C201.02 485.142 395.813 482.333 413.602 483.396C431.377 484.473 444.639 509.643 444.639 509.643L423.094 543.911L451.626 586.244L465.762 630.44Z" stroke="#263238" stroke-width="1.49048" stroke-miterlimit="10"/>
<path d="M208.301 435.327C204.589 469.115 214.444 485.245 233.18 492.538C253.546 500.472 283.389 498.215 307.117 491.694C311.557 490.471 386.819 463.365 398.727 443.392C408.597 426.826 409.893 410.579 388.741 409.444C378.653 408.905 288.92 433.027 288.92 433.027L280.477 429.955L208.301 435.327Z" fill="#2D3F45"/>
<path d="M259.105 275.326C258.421 276.068 257.868 277.087 257.416 278.296C256.412 280.945 255.932 284.468 255.699 287.787C255.349 293.072 255.67 297.846 255.67 297.846L231.388 296.929C233.848 284.104 225.9 273.929 225.9 273.929C225.361 233.561 263.705 270.275 259.105 275.326Z" fill="#FFDCCC" stroke="#2D3F45" stroke-width="1.49048" stroke-linecap="round" stroke-linejoin="round"/>
<path d="M233.193 290.393C233.193 290.393 270.824 292.052 279.69 319.435C279.69 319.435 296.62 328.97 291.437 343.95C286.255 358.929 281.655 375.277 281.655 375.277C281.655 375.277 284.712 396.939 283.562 408.061C283.562 408.061 289.327 422.298 286.546 425.34C286.546 425.34 292.981 430.45 292.413 431.862C288.118 442.577 222.289 454.368 205.985 442.416C201.006 438.762 225.23 377.374 222.886 374.273C220.543 371.172 210.789 343.367 211.939 338.753C211.939 338.753 200.992 342.145 200.992 319.42C200.992 296.696 216.816 287.307 233.164 290.378L233.193 290.393Z" fill="#C1DDEF"/>
<mask id="mask1_1000_6306" style="mask-type:luminance" maskUnits="userSpaceOnUse" x="200" y="289" width="93" height="159">
<path d="M233.191 290.393C233.191 290.393 270.822 292.052 279.688 319.435C279.688 319.435 296.618 328.97 291.435 343.95C286.253 358.929 281.653 375.277 281.653 375.277C281.653 375.277 284.71 396.939 283.56 408.061C283.56 408.061 289.325 422.298 286.544 425.34C286.544 425.34 292.979 430.45 292.411 431.862C288.116 442.577 222.288 454.368 205.983 442.416C201.005 438.762 225.228 377.374 222.884 374.273C220.541 371.172 210.787 343.367 211.937 338.753C211.937 338.753 200.99 342.145 200.99 319.42C200.99 296.696 216.814 287.307 233.162 290.378L233.191 290.393Z" fill="white"/>
</mask>
<g mask="url(#mask1_1000_6306)">
<path opacity="0.2" d="M201.018 319.449C201.018 342.159 211.951 338.767 211.951 338.767C211.631 340.048 212.155 343.105 213.116 346.934C213.712 346.599 214.295 346.221 214.863 345.813C229.929 335.026 226.698 304.12 260.995 305.46C260.995 305.46 248.505 296.449 237.063 299.608C225.62 302.781 215.969 314.049 212.577 313.888C209.2 313.714 214.484 308.895 214.863 306.406C215.168 304.484 208.006 308.706 202.139 309.754C201.411 312.666 201.018 315.897 201.018 319.449Z" fill="#2D3F45"/>
<path opacity="0.2" d="M245.203 364.127C245.203 364.127 248.522 403.257 285.323 413.04C284.435 410.23 283.561 408.076 283.561 408.076C284.711 396.939 281.654 375.278 281.654 375.278C281.654 375.278 286.24 358.93 291.437 343.95C291.524 343.702 291.597 343.455 291.67 343.208C287.9 342.189 283.11 339.859 279.107 334.619C271.129 324.181 245.203 364.127 245.203 364.127Z" fill="#2D3F45"/>
<path opacity="0.2" d="M260.996 434.832C260.996 434.832 276.179 437.045 290.737 434.031H290.751C291.567 433.318 292.12 432.59 292.411 431.877C292.935 430.567 287.461 426.097 286.646 425.428C279.659 428.674 268.013 433.74 260.996 434.832Z" fill="#2D3F45"/>
</g>
<path d="M233.193 290.393C233.193 290.393 270.824 292.052 279.69 319.435C279.69 319.435 296.62 328.97 291.437 343.95C286.255 358.929 281.655 375.277 281.655 375.277C281.655 375.277 284.712 396.939 283.562 408.061C283.562 408.061 289.327 422.298 286.546 425.34C286.546 425.34 292.981 430.45 292.413 431.862C288.118 442.577 222.289 454.368 205.985 442.416C201.006 438.762 225.23 377.374 222.886 374.273C220.543 371.172 210.789 343.367 211.939 338.753C211.939 338.753 200.992 342.145 200.992 319.42C200.992 296.696 216.816 287.307 233.164 290.378L233.193 290.393Z" stroke="#2D3F45" stroke-width="1.49048" stroke-linecap="round" stroke-linejoin="round"/>
<path d="M211.953 338.768C219.436 336.278 219.29 311.312 233.193 305.169C247.095 299.026 266.049 305.547 271.348 311.691" stroke="#2D3F45" stroke-width="1.49048" stroke-linecap="round" stroke-linejoin="round"/>
<path d="M376.468 402.689L398.828 405.732L405.845 411.511L408.262 420.348C408.262 420.348 405.088 419.387 402.744 413.913C402.744 413.913 400.008 412.225 397.256 410.318C397.256 410.318 392.773 412.254 384.446 412.195C379.438 412.152 378.259 417.523 371.795 415.864C360.295 412.923 376.483 402.689 376.483 402.689H376.468Z" fill="#FFDCCC" stroke="#2D3F45" stroke-width="1.49048" stroke-linecap="round" stroke-linejoin="round"/>
<path d="M251.508 314.5C268.497 308.357 286.635 349.38 303.915 371.973C306.404 375.234 354.589 392.703 370.719 398.467L381.084 401.539C381.084 401.539 374.941 415.747 366.104 420.347L358.04 418.047C358.04 418.047 283.942 403.33 275.324 397.754C270.942 394.915 233.166 356.629 233.18 344.721" fill="#C1DDEF"/>
<path d="M251.508 314.5C268.497 308.357 286.635 349.38 303.915 371.973C306.404 375.234 354.589 392.703 370.719 398.467L381.084 401.539C381.084 401.539 374.941 415.747 366.104 420.347L358.04 418.047C358.04 418.047 283.942 403.33 275.324 397.754C270.942 394.915 233.166 356.629 233.18 344.721" stroke="#2D3F45" stroke-width="1.49048" stroke-linecap="round" stroke-linejoin="round"/>
<path d="M335.418 485.696C330.949 472.143 346.627 466.728 354.736 468.722C362.844 470.716 373.908 467.004 382.395 468.285C390.882 469.566 399.704 469.945 397.404 483.381C395.104 496.818 340.237 500.268 335.418 485.681V485.696Z" fill="#757575" stroke="#2D3F45" stroke-width="1.49048" stroke-linecap="round" stroke-linejoin="round"/>
<path d="M365.16 470.731L366.208 473.613C366.208 473.613 376.224 470.541 382.396 472.172C388.568 473.802 391.451 473.424 392.222 475.913C392.994 478.402 394.333 483.396 392.222 484.167C390.112 484.939 372.453 489.932 368.61 489.539L367.082 493.571" stroke="#2D3F45" stroke-width="1.49048" stroke-linecap="round" stroke-linejoin="round"/>
<path d="M374.315 488.825V492.028" stroke="#2D3F45" stroke-width="1.49048" stroke-linecap="round" stroke-linejoin="round"/>
<path d="M381.42 487.195L382.396 490.427" stroke="#2D3F45" stroke-width="1.49048" stroke-linecap="round" stroke-linejoin="round"/>
<path d="M389.048 485.128L390.504 488.811" stroke="#2D3F45" stroke-width="1.49048" stroke-linecap="round" stroke-linejoin="round"/>
<path d="M393.357 481.591L396.254 482.144" stroke="#2D3F45" stroke-width="1.49048" stroke-linecap="round" stroke-linejoin="round"/>
<path d="M392.221 475.913L394.812 474.37" stroke="#2D3F45" stroke-width="1.49048" stroke-linecap="round" stroke-linejoin="round"/>
<path d="M387.899 473.38L389.049 470.731" stroke="#2D3F45" stroke-width="1.49048" stroke-linecap="round" stroke-linejoin="round"/>
<path d="M380.519 470.731V469.188" stroke="#2D3F45" stroke-width="1.49048" stroke-linecap="round" stroke-linejoin="round"/>
<path d="M373.383 472.055L372.451 469.188" stroke="#2D3F45" stroke-width="1.49048" stroke-linecap="round" stroke-linejoin="round"/>
<path d="M354.795 470.614L353.645 474.37C353.645 474.37 349.263 470.847 344.823 473.38C340.398 475.913 340.194 479.742 341.926 484.167C343.658 488.592 351.913 488.811 351.913 488.811L353.063 492.028" stroke="#2D3F45" stroke-width="1.49048" stroke-linecap="round" stroke-linejoin="round"/>
<path d="M345.58 490.427L346.701 487.879" stroke="#2D3F45" stroke-width="1.49048" stroke-linecap="round" stroke-linejoin="round"/>
<path d="M338.097 485.128L341.926 484.167" stroke="#2D3F45" stroke-width="1.49048" stroke-linecap="round" stroke-linejoin="round"/>
<path d="M338.097 476.365L341.372 477.064" stroke="#2D3F45" stroke-width="1.49048" stroke-linecap="round" stroke-linejoin="round"/>
<path d="M346.148 470.731L346.701 472.521" stroke="#2D3F45" stroke-width="1.49048" stroke-linecap="round" stroke-linejoin="round"/>
<path d="M364.009 476.365C364.009 476.365 367.46 480.601 365.16 487.88" stroke="#2D3F45" stroke-width="1.49048" stroke-linecap="round" stroke-linejoin="round"/>
<path d="M354.795 477.063C354.795 477.063 352.684 483.643 354.795 486.962" stroke="#2D3F45" stroke-width="1.49048" stroke-linecap="round" stroke-linejoin="round"/>
<path d="M356.526 474.37C356.526 474.37 359.816 474.879 362.102 473.38" stroke="#2D3F45" stroke-width="1.49048" stroke-linecap="round" stroke-linejoin="round"/>
<path d="M355.755 492.028C355.755 492.028 358.855 490.878 362.102 492.028" stroke="#2D3F45" stroke-width="1.49048" stroke-linecap="round" stroke-linejoin="round"/>
<path d="M372.452 475.913C372.452 475.913 373.049 481.154 372.918 485.143" stroke="#2D3F45" stroke-width="1.49048" stroke-linecap="round" stroke-linejoin="round"/>
<path d="M380.517 475.142C380.517 475.142 381.42 479.596 381.42 483.396" stroke="#2D3F45" stroke-width="1.49048" stroke-linecap="round" stroke-linejoin="round"/>
<path d="M387.899 475.913C387.899 475.913 388.758 480.353 389.049 481.882" stroke="#2D3F45" stroke-width="1.49048" stroke-linecap="round" stroke-linejoin="round"/>
<path d="M347.851 476.365C347.851 476.365 347.967 480.135 347.851 484.168" stroke="#2D3F45" stroke-width="1.49048" stroke-linecap="round" stroke-linejoin="round"/>
<g opacity="0.3">
<path d="M263.587 447.439C263.587 447.439 270.88 450.569 269.73 453.509C268.58 456.435 266.717 460.672 266.717 460.672C266.717 460.672 284.826 468.474 292.44 468.023C300.053 467.572 326.548 457.746 326.548 457.746V445.314L334.613 440.32C334.613 440.32 339.359 456.828 338.907 463.35L331.541 469.188L328.47 461.807" stroke="white" stroke-width="1.49048" stroke-linecap="round" stroke-linejoin="round"/>
<path d="M251.402 449.331C251.402 449.331 261.388 463.437 263.586 464.879C265.799 466.32 284.229 471.735 290.852 471.619C297.476 471.502 324.262 462.87 324.262 462.87" stroke="white" stroke-width="1.49048" stroke-linecap="round" stroke-linejoin="round"/>
<path d="M338.092 441.558C338.092 440.699 353.858 436.084 353.858 436.084C353.858 436.084 353.566 443.276 355.75 451.923L357.948 460.555C357.948 460.555 343.143 468.023 338.092 468.009" stroke="white" stroke-width="1.49048" stroke-linecap="round" stroke-linejoin="round"/>
<path d="M359.302 445.022C359.302 445.022 395.856 429.475 397.778 428.616C399.699 427.757 402.858 428.616 402.858 428.616" stroke="white" stroke-width="1.49048" stroke-linecap="round" stroke-linejoin="round"/>
<path d="M355.75 451.922C355.75 451.922 374.326 445.109 380.964 440.305C387.602 435.502 401.417 432.343 401.417 432.343" stroke="white" stroke-width="1.49048" stroke-linecap="round" stroke-linejoin="round"/>
<path d="M229.523 459.128C229.523 459.128 218.576 459.419 214.544 457.687L211.953 468.023C211.953 468.023 219.435 471.458 223.176 470.629C226.918 469.784 229.509 464.223 229.509 464.223" stroke="white" stroke-width="1.49048" stroke-linecap="round" stroke-linejoin="round"/>
<path d="M231.825 466.611C231.825 466.611 237.866 480.586 245.072 483.396C245.072 483.396 237.59 488.112 226.06 485.128C226.06 485.128 216.103 477.02 214.866 469.188" stroke="white" stroke-width="1.49048" stroke-linecap="round" stroke-linejoin="round"/>
</g>
<path d="M257.419 278.296C256.414 280.945 255.934 284.468 255.701 287.787C247.665 282.765 249.252 278.296 249.252 278.296H257.419Z" fill="#2D3F45"/>
<path d="M227.167 274.875C197.353 241.029 219.626 222.715 237.502 221.332C277.637 218.217 264.477 251.495 266.792 253.49C270.577 256.736 274.245 257.886 274.376 259.517C274.58 262.02 270.504 265.179 270.504 265.179L271.96 270.551L270.591 271.104C270.591 271.104 270.169 285.4 266.559 285.4C255.772 285.4 249.352 281.935 247.984 278.616" fill="#FFDCCC"/>
<path d="M227.167 274.875C197.353 241.029 219.626 222.715 237.502 221.332C277.637 218.217 264.477 251.495 266.792 253.49C270.577 256.736 274.245 257.886 274.376 259.517C274.58 262.02 270.504 265.179 270.504 265.179L271.96 270.551L270.591 271.104C270.591 271.104 270.169 285.4 266.559 285.4C255.772 285.4 249.352 281.935 247.984 278.616" stroke="#2D3F45" stroke-width="1.49048" stroke-linecap="round" stroke-linejoin="round"/>
<path d="M264.259 240.781C264.259 240.781 259.076 241 257.562 246.124" stroke="#2D3F45" stroke-width="1.49048" stroke-linecap="round" stroke-linejoin="round"/>
<path d="M263.838 252.471C263.954 253.898 263.546 255.091 262.935 255.135C262.324 255.179 261.741 254.072 261.625 252.631C261.508 251.204 261.916 250.011 262.527 249.967C263.139 249.923 263.721 251.03 263.838 252.471Z" fill="#2D3F45"/>
<path d="M270.592 271.105C270.592 271.105 267.287 271.367 266.559 269.984" stroke="#2D3F45" stroke-width="1.49048" stroke-linecap="round" stroke-linejoin="round"/>
<path d="M253.314 218.13C253.314 218.13 263.329 218.115 268.905 225.379C274.48 232.644 270.084 240.345 270.084 240.345L267.813 235.875C267.813 235.875 264.407 241.596 255.148 241.524L256.662 234.827C256.662 234.827 253.285 242.281 246.923 244.581L247.855 256.358C247.855 256.358 243.386 251.51 238.742 254.392C230.08 259.764 232.977 274.103 232.977 274.103C232.977 274.103 225.349 278.602 218.536 275.239C211.723 271.876 192.595 249.123 208.637 227.84C224.679 206.542 250.839 216.034 253.314 218.159V218.13Z" fill="#2D3F45"/>
<path d="M243.588 254.072C243.588 254.072 235.145 246.59 232.524 252.34C229.904 258.09 233.442 263.986 237.576 267.509C241.71 271.032 249.833 271.556 246.383 266.81" fill="#FFDCCC"/>
<path d="M243.588 254.072C243.588 254.072 235.145 246.59 232.524 252.34C229.904 258.09 233.442 263.986 237.576 267.509C241.71 271.032 249.833 271.556 246.383 266.81" stroke="#2D3F45" stroke-width="1.49048" stroke-linecap="round" stroke-linejoin="round"/>
<path d="M208.796 239.69C208.796 239.69 201.08 219.295 181.85 222.221C168.646 224.229 178.269 230.14 178.269 230.14C178.269 230.14 164.075 232.425 160.669 243.445C158.951 248.992 169.738 244.202 169.738 244.202C169.738 244.202 165.254 248.337 163.871 257.086C162.954 262.88 169.52 262.268 179.579 252.049C179.579 252.049 178.473 256.27 172.198 260.769C165.924 265.267 182.141 267.64 190.526 256.824C190.526 256.824 189.973 260.914 193.219 263.476C196.466 266.039 194.326 255.019 204.283 251.306C214.24 247.594 208.796 239.69 208.796 239.69Z" fill="#2D3F45"/>
<g opacity="0.2">
<path d="M257.419 221.944C257.419 221.944 266.342 225.51 264.275 233.386" stroke="white" stroke-width="1.49048" stroke-linecap="round" stroke-linejoin="round"/>
<path d="M255.146 223.298C255.146 223.298 256.005 233.663 244.781 237.695" stroke="white" stroke-width="1.49048" stroke-linecap="round" stroke-linejoin="round"/>
<path d="M247.213 221.129C247.213 221.129 219.685 215.277 207.893 237.695" stroke="white" stroke-width="1.49048" stroke-linecap="round" stroke-linejoin="round"/>
<path d="M241.652 245.323C241.652 245.323 221.752 252.66 206.773 245.323" stroke="white" stroke-width="1.49048" stroke-linecap="round" stroke-linejoin="round"/>
<path d="M226.645 268.222C226.645 268.222 214.183 262.821 207.895 252.558" stroke="white" stroke-width="1.49048" stroke-linecap="round" stroke-linejoin="round"/>
<path d="M201.008 237.695C201.008 237.695 187.353 228.306 176.537 239.428" stroke="white" stroke-width="1.49048" stroke-linecap="round" stroke-linejoin="round"/>
<path d="M198.141 243.46C198.141 243.46 186.597 242.95 185.388 252.558" stroke="white" stroke-width="1.49048" stroke-linecap="round" stroke-linejoin="round"/>
</g>
<path d="M286.546 425.341C286.546 425.341 261.842 440.306 231.621 436.084" stroke="#2D3F45" stroke-width="1.49048" stroke-linecap="round" stroke-linejoin="round"/>
<path d="M233.195 357.765C233.195 357.765 240.023 369.528 249.121 370.561" stroke="#2D3F45" stroke-width="1.49048" stroke-linecap="round" stroke-linejoin="round"/>
<path d="M222.902 374.273C222.902 374.273 230.879 384.259 237.066 383.866" stroke="#2D3F45" stroke-width="1.49048" stroke-linecap="round" stroke-linejoin="round"/>
<path d="M373.385 399.253C373.385 399.253 370.764 408.527 362.103 414.437" stroke="#2D3F45" stroke-width="1.49048" stroke-linecap="round" stroke-linejoin="round"/>
<path d="M303.914 371.973C303.914 371.973 293.171 377.592 284.713 370.561" stroke="#2D3F45" stroke-width="1.49048" stroke-linecap="round" stroke-linejoin="round"/>
</g>
</g>
<defs>
<filter id="filter0_d_1000_6306" x="26" y="42.5669" width="634" height="652.866" filterUnits="userSpaceOnUse" color-interpolation-filters="sRGB">
<feFlood flood-opacity="0" result="BackgroundImageFix"/>
<feColorMatrix in="SourceAlpha" type="matrix" values="0 0 0 0 0 0 0 0 0 0 0 0 0 0 0 0 0 0 127 0" result="hardAlpha"/>
<feOffset dy="4"/>
<feGaussianBlur stdDeviation="2"/>
<feComposite in2="hardAlpha" operator="out"/>
<feColorMatrix type="matrix" values="0 0 0 0 0 0 0 0 0 0 0 0 0 0 0 0 0 0 0.25 0"/>
<feBlend mode="normal" in2="BackgroundImageFix" result="effect1_dropShadow_1000_6306"/>
<feBlend mode="normal" in="SourceGraphic" in2="effect1_dropShadow_1000_6306" result="shape"/>
</filter>
<clipPath id="clip0_1000_6306">
<rect width="500" height="730" rx="25" fill="white"/>
</clipPath>
<clipPath id="clip1_1000_6306">
<rect width="626" height="644.866" fill="white" transform="matrix(-1 0 0 1 656 42.5669)"/>
</clipPath>
</defs>
</svg>
