<svg width="474" height="646" viewBox="0 0 474 646" fill="none" xmlns="http://www.w3.org/2000/svg">
<g clip-path="url(#clip0_1000_6152)" filter="url(#filter0_d_1000_6152)">
<path d="M582.382 179.028C582.382 179.028 577.854 163.306 547.327 163.218C516.8 163.131 498.909 190.775 498.909 190.775C498.909 190.775 486.113 178.736 470.639 186.772C455.179 194.808 455.222 206.643 455.222 206.643L328.136 216.833L604.393 216.892" stroke="#263238" stroke-width="1.49048" stroke-linecap="round" stroke-linejoin="round"/>
<path d="M4.72668 283.463C4.72668 283.463 9.25403 267.741 39.781 267.653C70.308 267.566 88.1991 295.211 88.1991 295.211C88.1991 295.211 100.995 283.172 116.47 291.207C131.93 299.243 131.886 303.799 131.886 303.799H171.628" stroke="#263238" stroke-width="1.49048" stroke-linecap="round" stroke-linejoin="round"/>
<path d="M629.271 275.835C629.271 275.835 624.743 260.112 594.216 260.025C563.689 259.938 545.798 287.582 545.798 287.582C545.798 287.582 533.002 275.543 517.527 283.579C502.067 291.615 502.111 296.171 502.111 296.171H462.369" stroke="#263238" stroke-width="1.49048" stroke-linecap="round" stroke-linejoin="round"/>
<path d="M612.79 397.142L569.7 394.231C569.7 394.231 575.829 382.555 561.999 368.726C548.169 354.911 534.107 364.126 534.107 364.126C534.107 364.126 520.539 322.084 480.958 327.019C441.376 331.954 437.198 366.513 437.198 366.513C437.198 366.513 428.74 358.026 411.504 363.587C394.268 369.148 391.662 390.504 395.928 399.486C395.928 399.486 376.304 402.936 374.994 418.09C374.994 418.09 373.786 404.683 355.312 404.275C336.839 403.868 332.239 424.597 332.239 424.597H311.509" stroke="#263238" stroke-width="1.49048" stroke-linecap="round" stroke-linejoin="round"/>
<path d="M46.2591 134.758L106.352 127.392C106.352 127.392 108.114 110.185 126.587 111.044C126.587 111.044 130.663 94.3467 150.534 89.2952C170.405 84.2438 180.77 105.134 180.77 105.134C180.77 105.134 191.295 101.858 201.543 108.307C211.064 114.305 207.265 125.703 207.265 125.703L312.093 136.214C312.093 136.214 158.119 139.722 60.2197 136.447" stroke="#263238" stroke-width="1.49048" stroke-linecap="round" stroke-linejoin="round"/>
<path d="M106.279 364.228L209.826 359.569C221.21 325.126 264.271 339.524 264.271 339.524C280.575 303.8 318.628 320.832 318.628 320.832C318.628 320.832 337.99 286.403 376.174 293.609C414.358 300.815 422.205 331.284 422.205 331.284L448.568 332.288" stroke="#263238" stroke-width="1.49048" stroke-linecap="round" stroke-linejoin="round"/>
<path d="M62.5048 441.309C67.8038 450.844 73.5103 460.146 79.6389 469.172C82.4049 473.277 85.2581 477.295 88.1696 481.269V481.284C93.3812 488.315 98.8402 495.157 104.547 501.78C106.366 503.92 108.23 506.031 110.122 508.113C114.446 512.902 118.9 517.546 123.486 522.059C124.345 522.903 125.189 523.733 126.048 524.563C150.621 548.233 178.775 567.93 209.972 581.919C267.474 607.744 340.014 613.422 406.367 598.122C410.253 597.219 414.126 596.258 417.969 595.21C420.793 594.439 423.603 593.638 426.398 592.794C429.411 591.891 432.41 590.93 435.38 589.926C436.835 589.446 438.291 588.936 439.747 588.427C446.196 586.156 452.557 583.652 458.773 580.944C459.472 580.638 460.156 580.333 460.841 580.027C482.138 570.535 501.936 558.453 519.391 543.779" stroke="#263238" stroke-width="1.49048" stroke-miterlimit="10"/>
<path d="M112.175 390.081C112.175 390.081 88.3302 398.146 91.8531 416.357C91.8531 416.357 119.352 421.467 112.175 390.081Z" fill="#263238"/>
<path d="M65.1689 406.705C65.1689 406.705 46.9284 391.769 27.3487 406.734C27.3487 406.734 46.3753 425.557 65.1689 406.705Z" fill="#263238"/>
<path d="M16.8099 357.21C16.8099 357.21 21.8323 393.545 51.5586 375.683C51.5586 375.683 34.7739 352.275 16.8099 357.21Z" fill="#263238"/>
<path d="M51.3529 327.542C51.3529 327.542 29.3711 347.704 53.3472 363.79C53.3472 363.79 67.4389 344.399 51.3529 327.542Z" fill="#263238"/>
<path d="M90.6449 351.212C90.6449 351.212 62.2724 355.419 68.7505 381.026C68.7505 381.026 96.7008 375.115 90.6449 351.212Z" fill="#263238"/>
<path d="M90.4115 444.904C90.4115 444.904 95.2737 426.241 76.349 402.338C57.4243 378.434 47.5834 356.758 49.869 339.158" stroke="#263238" stroke-width="1.49048" stroke-linecap="round" stroke-linejoin="round"/>
<path d="M83.292 360.398C83.292 360.398 68.3706 371.186 67.0459 389.688" stroke="#263238" stroke-width="1.49048" stroke-linecap="round" stroke-linejoin="round"/>
<path d="M29.1387 369.147C29.1387 369.147 42.0221 379.774 57.9043 374.271" stroke="#263238" stroke-width="1.49048" stroke-linecap="round" stroke-linejoin="round"/>
<path d="M38.907 407.812C38.907 407.812 67.3814 408.743 77.3096 403.575" stroke="#263238" stroke-width="1.49048" stroke-linecap="round" stroke-linejoin="round"/>
<path d="M106.279 400.169C106.279 400.169 98.229 415.6 86.2337 418.409" stroke="#263238" stroke-width="1.49048" stroke-linecap="round" stroke-linejoin="round"/>
<path d="M51.1641 356.7C49.7374 350.979 49.1114 345.011 49.8684 339.144" stroke="white" stroke-width="1.49048" stroke-linecap="round" stroke-linejoin="round"/>
<path d="M83.292 360.398C77.5709 364.737 72.9271 370.894 70.0884 377.46" stroke="white" stroke-width="1.49048" stroke-linecap="round" stroke-linejoin="round"/>
<path d="M29.14 369.147C33.5946 372.626 39.2283 374.883 44.8184 375.611" stroke="white" stroke-width="1.49048" stroke-linecap="round" stroke-linejoin="round"/>
<path d="M38.9074 407.812C45.895 408.016 52.9117 407.855 59.8701 407.273" stroke="white" stroke-width="1.49048" stroke-linecap="round" stroke-linejoin="round"/>
<path d="M106.279 400.169C103.572 405.046 100.049 409.631 95.8707 413.329" stroke="white" stroke-width="1.49048" stroke-linecap="round" stroke-linejoin="round"/>
<path d="M479.677 490.803C479.677 490.803 502.038 502.376 495.807 519.845C495.807 519.845 467.842 520.762 479.677 490.803Z" fill="#263238"/>
<path d="M155.641 488.096C137.925 496.976 129.554 514.561 126.061 524.577C125.202 523.747 124.357 522.917 123.499 522.073C118.913 517.56 114.458 512.916 110.135 508.127C108.242 506.045 106.379 503.934 104.559 501.794C103.715 498.417 102.754 494.851 101.677 491.168C100.745 487.979 99.7116 484.704 98.5907 481.385C97.3824 477.789 96.0723 474.15 94.6311 470.525C93.3937 467.395 92.069 464.265 90.6424 461.194C89.1575 457.991 87.9492 455.021 86.9884 452.314C82.9706 440.944 83.2326 433.811 85.358 430.186C87.7745 426.081 92.5639 426.431 96.247 430.186C96.9749 430.929 97.7027 431.86 98.4306 432.938C101.153 436.985 103.89 443.07 106.233 449.067C110.004 458.661 112.755 467.977 112.755 467.977C112.755 467.977 108.461 436.563 109.669 419.763C110.528 407.972 111.78 397.403 114.094 389.906C116.613 381.768 120.398 377.255 126.323 378.726C134.591 380.778 130.603 400.547 127.982 427.319C127.065 436.621 126.323 446.782 126.323 457.336C126.323 464.542 126.658 471.937 127.531 479.376C127.531 479.376 127.982 478.634 128.754 477.294C132.699 470.438 145.218 447.815 149.964 428.119C155.627 404.594 171.363 414.464 166.327 435.529C161.29 456.594 140.531 468.662 132.83 491.546C132.83 491.546 159.383 466.085 168.175 475.766C173.125 481.225 160.911 485.446 155.627 488.096H155.641Z" fill="#C4C6ED" stroke="#263238" stroke-width="1.49048" stroke-linecap="round" stroke-linejoin="round"/>
<path opacity="0.2" d="M155.641 488.096C137.925 496.976 129.554 514.561 126.061 524.577C125.202 523.747 124.357 522.917 123.499 522.073C118.913 517.56 114.458 512.916 110.135 508.127C108.242 506.045 106.379 503.934 104.559 501.794C103.715 498.417 102.754 494.851 101.677 491.168C100.745 487.979 99.7116 484.704 98.5907 481.385C97.3824 477.789 96.0723 474.15 94.6311 470.525C93.3937 467.395 92.069 464.265 90.6424 461.194C89.1575 457.991 87.9492 455.021 86.9884 452.314C82.9706 440.944 83.2326 433.811 85.358 430.186C87.7745 426.081 92.5639 426.431 96.247 430.186C96.9749 430.929 97.7027 431.86 98.4306 432.938C101.153 436.985 103.89 443.07 106.233 449.067C110.004 458.661 112.755 467.977 112.755 467.977C112.755 467.977 108.461 436.563 109.669 419.763C110.528 407.972 111.78 397.403 114.094 389.906C116.613 381.768 120.398 377.255 126.323 378.726C134.591 380.778 130.603 400.547 127.982 427.319C127.065 436.621 126.323 446.782 126.323 457.336C126.323 464.542 126.658 471.937 127.531 479.376C127.531 479.376 127.982 478.634 128.754 477.294C132.699 470.438 145.218 447.815 149.964 428.119C155.627 404.594 171.363 414.464 166.327 435.529C161.29 456.594 140.531 468.662 132.83 491.546C132.83 491.546 159.383 466.085 168.175 475.766C173.125 481.225 160.911 485.446 155.627 488.096H155.641Z" fill="black" stroke="#263238" stroke-width="1.49048" stroke-miterlimit="10"/>
<path d="M136.528 450.669C132.874 459.374 130.414 468.545 128.769 477.294C124.3 500.994 125.813 521.622 125.813 521.622L123.499 522.073C118.913 517.56 114.459 512.916 110.135 508.127C108.243 506.045 106.379 503.934 104.56 501.794C98.8531 495.171 93.394 488.329 88.1825 481.298V481.283C85.271 477.309 82.4177 473.291 79.6518 469.186C86.7267 472.199 94.3839 477.964 98.6056 481.385C100.629 483.015 101.866 484.122 101.866 484.122C99.974 479.114 97.4701 474.645 94.646 470.525C84.7032 456.026 70.8882 445.574 66.3899 429.327C60.5961 408.452 75.9688 398.029 82.476 421.35C83.2912 424.261 84.2811 427.217 85.3729 430.186C93.132 451.004 106.729 471.777 106.729 471.777C103.191 460.349 100.338 446.578 98.46 432.952C94.1656 401.77 94.9517 371.301 104.356 371.141C111.533 371.01 114.066 377.619 114.138 389.906C114.197 395.743 113.687 402.877 112.857 411.189C110.295 436.941 117.603 474.004 117.603 474.004C117.603 474.004 121.723 439.765 128.026 427.319C128.681 426.037 129.351 424.989 130.035 424.232C137.445 416.095 150.11 418.366 136.557 450.669H136.528Z" fill="#C4C6ED" stroke="#263238" stroke-width="1.49048" stroke-linecap="round" stroke-linejoin="round"/>
<path d="M129.335 449.184C117.835 476.45 117.849 515.915 117.849 515.915C117.849 515.915 100.671 437.814 104.049 404.71" stroke="#263238" stroke-width="1.49048" stroke-linecap="round" stroke-linejoin="round"/>
<path d="M77.2359 434.568C77.2359 434.568 95.5055 471.398 111.854 485.359" stroke="#263238" stroke-width="1.49048" stroke-linecap="round" stroke-linejoin="round"/>
<path d="M115.55 504.808C112.929 500.746 107.558 495.84 101.677 491.167C97.1346 487.572 92.3016 484.107 88.1818 481.297V481.283" stroke="#263238" stroke-width="1.49048" stroke-linecap="round" stroke-linejoin="round"/>
<path d="M472.123 568.09C472.123 568.09 472.094 568.133 472.065 568.148C470.129 570.244 467.858 572.472 465.267 574.815C463.054 576.795 460.885 578.862 458.789 580.959C452.573 583.666 446.211 586.17 439.762 588.441C438.306 588.951 436.851 589.46 435.395 589.94C432.425 590.945 429.426 591.906 426.413 592.808C423.618 593.653 420.808 594.453 417.984 595.225C414.141 596.273 410.269 597.234 406.382 598.136C404.664 590.101 401.287 581.497 394.925 573.956C391.111 569.444 381.547 560.753 388.243 557.681C400.137 552.237 414.519 586.097 414.519 586.097C416.456 562.034 402.116 542.76 405.785 521.419C409.439 500.077 427.796 497.195 423.734 521.055C420.342 541.027 422.948 566.75 423.88 574.611C424.055 576.14 424.186 576.999 424.186 576.999C427.912 570.521 431.115 563.854 433.954 557.244C433.954 557.23 433.954 557.215 433.954 557.215C438.117 547.52 441.422 537.883 444.246 528.974C452.383 503.324 456.489 483.584 464.903 484.952C470.93 485.942 472.633 491.576 471.745 500.048C470.915 507.851 467.916 518.056 464.058 529.236C458.643 544.9 442.746 571.496 442.251 572.326C442.63 571.875 448.671 564.625 455.673 557.521C460.201 552.935 465.107 548.423 469.197 545.788C470.289 545.074 471.323 544.507 472.283 544.099C477.16 542.105 481.688 543.662 482.299 548.394C482.823 552.557 480.261 559.224 472.094 568.09H472.123Z" fill="#C4C6ED" stroke="#263238" stroke-width="1.49048" stroke-linecap="round" stroke-linejoin="round"/>
<path opacity="0.2" d="M472.123 568.09C472.123 568.09 472.094 568.133 472.065 568.148C470.129 570.244 467.858 572.472 465.267 574.815C463.054 576.795 460.885 578.862 458.789 580.959C452.573 583.666 446.211 586.17 439.762 588.441C438.306 588.951 436.851 589.46 435.395 589.94C432.425 590.945 429.426 591.906 426.413 592.808C423.618 593.653 420.808 594.453 417.984 595.225C414.141 596.273 410.269 597.234 406.382 598.136C404.664 590.101 401.287 581.497 394.925 573.956C391.111 569.444 381.547 560.753 388.243 557.681C400.137 552.237 414.519 586.097 414.519 586.097C416.456 562.034 402.116 542.76 405.785 521.419C409.439 500.077 427.796 497.195 423.734 521.055C420.342 541.027 422.948 566.75 423.88 574.611C424.055 576.14 424.186 576.999 424.186 576.999C427.912 570.521 431.115 563.854 433.954 557.244C433.954 557.23 433.954 557.215 433.954 557.215C438.117 547.52 441.422 537.883 444.246 528.974C452.383 503.324 456.489 483.584 464.903 484.952C470.93 485.942 472.633 491.576 471.745 500.048C470.915 507.851 467.916 518.056 464.058 529.236C458.643 544.9 442.746 571.496 442.251 572.326C442.63 571.875 448.671 564.625 455.673 557.521C460.201 552.935 465.107 548.423 469.197 545.788C470.289 545.074 471.323 544.507 472.283 544.099C477.16 542.105 481.688 543.662 482.299 548.394C482.823 552.557 480.261 559.224 472.094 568.09H472.123Z" fill="black" stroke="#263238" stroke-width="1.49048" stroke-miterlimit="10"/>
<path d="M500.116 555.075C490.275 567.376 474.932 571.831 460.855 580.041C460.171 580.347 459.486 580.653 458.788 580.959C452.572 583.666 446.21 586.17 439.761 588.441C438.305 588.951 436.85 589.46 435.394 589.94C432.424 590.945 429.425 591.906 426.412 592.808C423.617 593.653 420.807 594.453 417.983 595.225C420.079 589.169 422.205 582.152 423.879 574.611C425.815 565.921 427.154 556.517 427.227 547.069C427.489 512.044 440.023 514.94 443.633 525.335C443.954 526.31 444.157 527.533 444.259 528.974C445.147 542.687 435.758 575.005 435.481 575.965C436.136 575.019 456.895 544.419 464.552 520.108C467.071 512.145 469.4 505.391 471.758 500.048C476.664 488.781 481.585 483.7 488.135 486.655C496.724 490.498 485.442 518.813 469.225 545.773C462.136 557.565 454.1 569.094 446.356 578.207C446.981 577.785 467.245 564.232 482.342 548.394C484.511 546.093 486.592 543.764 488.485 541.406C503.654 522.539 513.669 538.174 500.131 555.075H500.116Z" fill="#C4C6ED" stroke="#263238" stroke-width="1.49048" stroke-linecap="round" stroke-linejoin="round"/>
<path d="M435.394 589.94C435.671 589.518 435.947 589.096 436.238 588.674C442.352 579.357 449.296 568.439 455.687 557.521C464.218 542.949 471.788 528.362 475.15 517.604" stroke="#263238" stroke-width="1.49048" stroke-linecap="round" stroke-linejoin="round"/>
<path d="M434.403 548.539C434.403 551.378 434.229 554.289 433.967 557.215C433.967 557.215 433.967 557.23 433.967 557.244C432.817 569.633 429.599 582.458 426.426 592.808" stroke="#263238" stroke-width="1.49048" stroke-linecap="round" stroke-linejoin="round"/>
<path d="M488.049 555.614C488.049 555.614 456.765 582.283 436.224 588.674" stroke="#263238" stroke-width="1.49048" stroke-linecap="round" stroke-linejoin="round"/>
<path d="M439.762 588.44C365.271 614.789 277.33 612.169 209.987 581.933C171.817 564.814 138.204 539.163 110.137 508.127L135.205 482.331H162.777L175.02 443.142C175.02 443.142 369.813 440.333 387.602 441.396C405.377 442.473 418.639 467.643 418.639 467.643L397.094 501.911L425.626 544.244L439.762 588.44Z" fill="#A2ADB4"/>
<mask id="mask0_1000_6152" style="mask-type:luminance" maskUnits="userSpaceOnUse" x="110" y="441" width="330" height="166">
<path d="M439.762 588.44C365.271 614.789 277.33 612.169 209.987 581.933C171.817 564.813 138.204 539.163 110.137 508.127L135.205 482.331H162.777L175.02 443.142C175.02 443.142 369.813 440.333 387.602 441.395C405.377 442.473 418.639 467.642 418.639 467.642L397.094 501.911L425.626 544.244L439.762 588.44Z" fill="white"/>
</mask>
<g mask="url(#mask0_1000_6152)">
<path opacity="0.3" d="M367.513 458.413C340.801 462.446 298.264 451.513 298.264 451.513C298.264 451.513 266.776 461.281 227.267 458.413C201.195 456.521 189.286 448.354 184.206 443.012C223.002 442.473 372.143 440.479 387.603 441.396C389.102 441.483 390.587 441.745 392.014 442.167L379.611 445.894C379.611 445.894 394.241 454.381 367.513 458.413Z" fill="black"/>
<path opacity="0.3" d="M162.779 482.331C162.779 482.331 209.873 506.103 211.066 504.808C212.26 503.512 242.583 493.599 242.583 493.599L261.828 499.64L242.583 475.242L191.268 473.684L175.022 443.157L162.779 482.346V482.331Z" fill="black"/>
<path opacity="0.3" d="M426.646 547.433L397.094 565.673L338.005 546.443L397.094 501.911L425.626 544.244L426.646 547.433Z" fill="black"/>
<path opacity="0.3" d="M384.618 602.372C324.481 611.965 261.258 604.949 209.987 581.933C171.817 564.814 138.204 539.163 110.137 508.127L135.205 482.331L159.385 534.767H231.415L280.576 577.464L347.395 580.579L384.618 602.372Z" fill="black"/>
<path d="M284.434 505.318L316.694 510.325L346.449 497.209L352.592 475.227L394.241 470.976L418.64 467.643" stroke="#263238" stroke-width="1.49048" stroke-linecap="round" stroke-linejoin="round"/>
<path d="M242.581 475.227L191.266 473.669L175.02 443.142" stroke="#263238" stroke-width="1.49048" stroke-linecap="round" stroke-linejoin="round"/>
<path d="M231.416 534.767L280.577 577.464L315.922 565.673L312.094 541.027L327.845 541.507" stroke="#263238" stroke-width="1.49048" stroke-linecap="round" stroke-linejoin="round"/>
<path d="M427.229 547.068L397.095 565.673L394.241 580.565" stroke="#263238" stroke-width="1.49048" stroke-linecap="round" stroke-linejoin="round"/>
</g>
<path d="M439.762 588.44C365.271 614.789 277.33 612.169 209.987 581.933C171.817 564.814 138.204 539.163 110.137 508.127L135.205 482.331H162.777L175.02 443.142C175.02 443.142 369.813 440.333 387.602 441.396C405.377 442.473 418.639 467.643 418.639 467.643L397.094 501.911L425.626 544.244L439.762 588.44Z" stroke="#263238" stroke-width="1.49048" stroke-miterlimit="10"/>
<path d="M182.301 393.327C178.589 427.115 188.444 443.245 207.18 450.538C227.546 458.472 257.389 456.215 281.117 449.694C285.557 448.471 360.819 421.365 372.727 401.392C382.597 384.826 383.893 368.579 362.741 367.444C352.653 366.905 262.92 391.027 262.92 391.027L254.477 387.955L182.301 393.327Z" fill="#2D3F45"/>
<path d="M233.105 233.326C232.421 234.068 231.868 235.087 231.416 236.296C230.412 238.945 229.932 242.468 229.699 245.787C229.349 251.072 229.67 255.846 229.67 255.846L205.388 254.929C207.848 242.104 199.9 231.929 199.9 231.929C199.361 191.561 237.705 228.275 233.105 233.326Z" fill="#FFDCCC" stroke="#2D3F45" stroke-width="1.49048" stroke-linecap="round" stroke-linejoin="round"/>
<path d="M207.193 248.393C207.193 248.393 244.824 250.052 253.69 277.435C253.69 277.435 270.62 286.97 265.437 301.95C260.255 316.929 255.655 333.277 255.655 333.277C255.655 333.277 258.712 354.939 257.562 366.061C257.562 366.061 263.327 380.298 260.546 383.34C260.546 383.34 266.981 388.45 266.413 389.862C262.118 400.577 196.289 412.368 179.985 400.416C175.006 396.762 199.23 335.374 196.886 332.273C194.543 329.172 184.789 301.367 185.939 296.753C185.939 296.753 174.992 300.145 174.992 277.42C174.992 254.696 190.816 245.307 207.164 248.378L207.193 248.393Z" fill="#C1DDEF"/>
<mask id="mask1_1000_6152" style="mask-type:luminance" maskUnits="userSpaceOnUse" x="174" y="247" width="93" height="159">
<path d="M207.191 248.393C207.191 248.393 244.822 250.052 253.688 277.435C253.688 277.435 270.618 286.97 265.435 301.95C260.253 316.929 255.653 333.277 255.653 333.277C255.653 333.277 258.71 354.939 257.56 366.061C257.56 366.061 263.325 380.298 260.544 383.34C260.544 383.34 266.979 388.45 266.411 389.862C262.116 400.577 196.288 412.368 179.983 400.416C175.005 396.762 199.228 335.374 196.884 332.273C194.541 329.172 184.787 301.367 185.937 296.753C185.937 296.753 174.99 300.145 174.99 277.42C174.99 254.696 190.814 245.307 207.162 248.378L207.191 248.393Z" fill="white"/>
</mask>
<g mask="url(#mask1_1000_6152)">
<path opacity="0.2" d="M175.018 277.449C175.018 300.159 185.951 296.767 185.951 296.767C185.631 298.048 186.155 301.105 187.116 304.934C187.712 304.599 188.295 304.221 188.863 303.813C203.929 293.026 200.698 262.12 234.995 263.46C234.995 263.46 222.505 254.449 211.063 257.608C199.62 260.781 189.969 272.049 186.577 271.888C183.2 271.714 188.484 266.895 188.863 264.406C189.168 262.484 182.006 266.706 176.139 267.754C175.411 270.666 175.018 273.897 175.018 277.449Z" fill="#2D3F45"/>
<path opacity="0.2" d="M219.203 322.127C219.203 322.127 222.522 361.257 259.323 371.04C258.435 368.23 257.561 366.076 257.561 366.076C258.711 354.939 255.654 333.278 255.654 333.278C255.654 333.278 260.24 316.93 265.437 301.95C265.524 301.702 265.597 301.455 265.67 301.208C261.9 300.189 257.11 297.859 253.107 292.619C245.129 282.181 219.203 322.127 219.203 322.127Z" fill="#2D3F45"/>
<path opacity="0.2" d="M234.996 392.832C234.996 392.832 250.179 395.045 264.737 392.031H264.751C265.567 391.318 266.12 390.59 266.411 389.877C266.935 388.567 261.461 384.097 260.646 383.428C253.659 386.674 242.013 391.74 234.996 392.832Z" fill="#2D3F45"/>
</g>
<path d="M207.193 248.393C207.193 248.393 244.824 250.052 253.69 277.435C253.69 277.435 270.62 286.97 265.437 301.95C260.255 316.929 255.655 333.277 255.655 333.277C255.655 333.277 258.712 354.939 257.562 366.061C257.562 366.061 263.327 380.298 260.546 383.34C260.546 383.34 266.981 388.45 266.413 389.862C262.118 400.577 196.289 412.368 179.985 400.416C175.006 396.762 199.23 335.374 196.886 332.273C194.543 329.172 184.789 301.367 185.939 296.753C185.939 296.753 174.992 300.145 174.992 277.42C174.992 254.696 190.816 245.307 207.164 248.378L207.193 248.393Z" stroke="#2D3F45" stroke-width="1.49048" stroke-linecap="round" stroke-linejoin="round"/>
<path d="M185.953 296.768C193.436 294.278 193.29 269.312 207.193 263.169C221.095 257.026 240.049 263.547 245.348 269.691" stroke="#2D3F45" stroke-width="1.49048" stroke-linecap="round" stroke-linejoin="round"/>
<path d="M350.468 360.689L372.828 363.732L379.845 369.511L382.262 378.348C382.262 378.348 379.088 377.387 376.744 371.913C376.744 371.913 374.008 370.225 371.256 368.318C371.256 368.318 366.773 370.254 358.446 370.195C353.438 370.152 352.259 375.523 345.795 373.864C334.295 370.923 350.483 360.689 350.483 360.689H350.468Z" fill="#FFDCCC" stroke="#2D3F45" stroke-width="1.49048" stroke-linecap="round" stroke-linejoin="round"/>
<path d="M225.508 272.5C242.497 266.357 260.635 307.38 277.915 329.973C280.404 333.234 328.589 350.703 344.719 356.467L355.084 359.539C355.084 359.539 348.941 373.747 340.104 378.347L332.04 376.047C332.04 376.047 257.942 361.33 249.324 355.754C244.942 352.915 207.166 314.629 207.18 302.721" fill="#C1DDEF"/>
<path d="M225.508 272.5C242.497 266.357 260.635 307.38 277.915 329.973C280.404 333.234 328.589 350.703 344.719 356.467L355.084 359.539C355.084 359.539 348.941 373.747 340.104 378.347L332.04 376.047C332.04 376.047 257.942 361.33 249.324 355.754C244.942 352.915 207.166 314.629 207.18 302.721" stroke="#2D3F45" stroke-width="1.49048" stroke-linecap="round" stroke-linejoin="round"/>
<path d="M309.418 443.696C304.949 430.143 320.627 424.728 328.736 426.722C336.844 428.716 347.908 425.004 356.395 426.285C364.882 427.566 373.704 427.945 371.404 441.381C369.104 454.818 314.237 458.268 309.418 443.681V443.696Z" fill="#757575" stroke="#2D3F45" stroke-width="1.49048" stroke-linecap="round" stroke-linejoin="round"/>
<path d="M339.16 428.731L340.208 431.613C340.208 431.613 350.224 428.541 356.396 430.172C362.568 431.802 365.451 431.424 366.222 433.913C366.994 436.402 368.333 441.396 366.222 442.167C364.112 442.939 346.453 447.932 342.61 447.539L341.082 451.571" stroke="#2D3F45" stroke-width="1.49048" stroke-linecap="round" stroke-linejoin="round"/>
<path d="M348.315 446.825V450.028" stroke="#2D3F45" stroke-width="1.49048" stroke-linecap="round" stroke-linejoin="round"/>
<path d="M355.42 445.195L356.396 448.427" stroke="#2D3F45" stroke-width="1.49048" stroke-linecap="round" stroke-linejoin="round"/>
<path d="M363.048 443.128L364.504 446.811" stroke="#2D3F45" stroke-width="1.49048" stroke-linecap="round" stroke-linejoin="round"/>
<path d="M367.357 439.591L370.254 440.144" stroke="#2D3F45" stroke-width="1.49048" stroke-linecap="round" stroke-linejoin="round"/>
<path d="M366.221 433.913L368.812 432.37" stroke="#2D3F45" stroke-width="1.49048" stroke-linecap="round" stroke-linejoin="round"/>
<path d="M361.899 431.38L363.049 428.731" stroke="#2D3F45" stroke-width="1.49048" stroke-linecap="round" stroke-linejoin="round"/>
<path d="M354.519 428.731V427.188" stroke="#2D3F45" stroke-width="1.49048" stroke-linecap="round" stroke-linejoin="round"/>
<path d="M347.383 430.055L346.451 427.188" stroke="#2D3F45" stroke-width="1.49048" stroke-linecap="round" stroke-linejoin="round"/>
<path d="M328.795 428.614L327.645 432.37C327.645 432.37 323.263 428.847 318.823 431.38C314.398 433.913 314.194 437.742 315.926 442.167C317.658 446.592 325.913 446.811 325.913 446.811L327.063 450.028" stroke="#2D3F45" stroke-width="1.49048" stroke-linecap="round" stroke-linejoin="round"/>
<path d="M319.58 448.427L320.701 445.879" stroke="#2D3F45" stroke-width="1.49048" stroke-linecap="round" stroke-linejoin="round"/>
<path d="M312.097 443.128L315.926 442.167" stroke="#2D3F45" stroke-width="1.49048" stroke-linecap="round" stroke-linejoin="round"/>
<path d="M312.097 434.365L315.372 435.064" stroke="#2D3F45" stroke-width="1.49048" stroke-linecap="round" stroke-linejoin="round"/>
<path d="M320.148 428.731L320.701 430.521" stroke="#2D3F45" stroke-width="1.49048" stroke-linecap="round" stroke-linejoin="round"/>
<path d="M338.009 434.365C338.009 434.365 341.46 438.601 339.16 445.88" stroke="#2D3F45" stroke-width="1.49048" stroke-linecap="round" stroke-linejoin="round"/>
<path d="M328.795 435.063C328.795 435.063 326.684 441.643 328.795 444.962" stroke="#2D3F45" stroke-width="1.49048" stroke-linecap="round" stroke-linejoin="round"/>
<path d="M330.526 432.37C330.526 432.37 333.816 432.879 336.102 431.38" stroke="#2D3F45" stroke-width="1.49048" stroke-linecap="round" stroke-linejoin="round"/>
<path d="M329.755 450.028C329.755 450.028 332.855 448.878 336.102 450.028" stroke="#2D3F45" stroke-width="1.49048" stroke-linecap="round" stroke-linejoin="round"/>
<path d="M346.452 433.913C346.452 433.913 347.049 439.154 346.918 443.143" stroke="#2D3F45" stroke-width="1.49048" stroke-linecap="round" stroke-linejoin="round"/>
<path d="M354.517 433.142C354.517 433.142 355.42 437.596 355.42 441.396" stroke="#2D3F45" stroke-width="1.49048" stroke-linecap="round" stroke-linejoin="round"/>
<path d="M361.899 433.913C361.899 433.913 362.758 438.353 363.049 439.882" stroke="#2D3F45" stroke-width="1.49048" stroke-linecap="round" stroke-linejoin="round"/>
<path d="M321.851 434.365C321.851 434.365 321.967 438.135 321.851 442.168" stroke="#2D3F45" stroke-width="1.49048" stroke-linecap="round" stroke-linejoin="round"/>
<g opacity="0.3">
<path d="M237.587 405.439C237.587 405.439 244.88 408.569 243.73 411.509C242.58 414.435 240.717 418.672 240.717 418.672C240.717 418.672 258.826 426.474 266.44 426.023C274.053 425.572 300.548 415.746 300.548 415.746V403.314L308.613 398.32C308.613 398.32 313.359 414.828 312.907 421.35L305.541 427.188L302.47 419.807" stroke="white" stroke-width="1.49048" stroke-linecap="round" stroke-linejoin="round"/>
<path d="M225.402 407.331C225.402 407.331 235.388 421.437 237.586 422.879C239.799 424.32 258.229 429.735 264.852 429.619C271.476 429.502 298.262 420.87 298.262 420.87" stroke="white" stroke-width="1.49048" stroke-linecap="round" stroke-linejoin="round"/>
<path d="M312.092 399.558C312.092 398.699 327.858 394.084 327.858 394.084C327.858 394.084 327.566 401.276 329.75 409.923L331.948 418.555C331.948 418.555 317.143 426.023 312.092 426.009" stroke="white" stroke-width="1.49048" stroke-linecap="round" stroke-linejoin="round"/>
<path d="M333.302 403.022C333.302 403.022 369.856 387.475 371.778 386.616C373.699 385.757 376.858 386.616 376.858 386.616" stroke="white" stroke-width="1.49048" stroke-linecap="round" stroke-linejoin="round"/>
<path d="M329.75 409.922C329.75 409.922 348.326 403.109 354.964 398.305C361.602 393.502 375.417 390.343 375.417 390.343" stroke="white" stroke-width="1.49048" stroke-linecap="round" stroke-linejoin="round"/>
<path d="M203.523 417.128C203.523 417.128 192.576 417.419 188.544 415.687L185.953 426.023C185.953 426.023 193.435 429.458 197.176 428.629C200.918 427.784 203.509 422.223 203.509 422.223" stroke="white" stroke-width="1.49048" stroke-linecap="round" stroke-linejoin="round"/>
<path d="M205.825 424.611C205.825 424.611 211.866 438.586 219.072 441.396C219.072 441.396 211.59 446.112 200.06 443.128C200.06 443.128 190.103 435.02 188.866 427.188" stroke="white" stroke-width="1.49048" stroke-linecap="round" stroke-linejoin="round"/>
</g>
<path d="M231.419 236.296C230.414 238.945 229.934 242.468 229.701 245.787C221.665 240.765 223.252 236.296 223.252 236.296H231.419Z" fill="#2D3F45"/>
<path d="M201.167 232.875C171.353 199.029 193.626 180.715 211.502 179.332C251.637 176.217 238.477 209.495 240.792 211.49C244.577 214.736 248.245 215.886 248.376 217.517C248.58 220.02 244.504 223.179 244.504 223.179L245.96 228.551L244.591 229.104C244.591 229.104 244.169 243.4 240.559 243.4C229.772 243.4 223.352 239.935 221.984 236.616" fill="#FFDCCC"/>
<path d="M201.167 232.875C171.353 199.029 193.626 180.715 211.502 179.332C251.637 176.217 238.477 209.495 240.792 211.49C244.577 214.736 248.245 215.886 248.376 217.517C248.58 220.02 244.504 223.179 244.504 223.179L245.96 228.551L244.591 229.104C244.591 229.104 244.169 243.4 240.559 243.4C229.772 243.4 223.352 239.935 221.984 236.616" stroke="#2D3F45" stroke-width="1.49048" stroke-linecap="round" stroke-linejoin="round"/>
<path d="M238.259 198.781C238.259 198.781 233.076 199 231.562 204.124" stroke="#2D3F45" stroke-width="1.49048" stroke-linecap="round" stroke-linejoin="round"/>
<path d="M237.838 210.471C237.954 211.898 237.546 213.091 236.935 213.135C236.324 213.179 235.741 212.072 235.625 210.631C235.508 209.204 235.916 208.011 236.527 207.967C237.139 207.923 237.721 209.03 237.838 210.471Z" fill="#2D3F45"/>
<path d="M244.592 229.105C244.592 229.105 241.287 229.367 240.559 227.984" stroke="#2D3F45" stroke-width="1.49048" stroke-linecap="round" stroke-linejoin="round"/>
<path d="M227.314 176.13C227.314 176.13 237.329 176.115 242.905 183.379C248.48 190.644 244.084 198.345 244.084 198.345L241.813 193.875C241.813 193.875 238.407 199.596 229.148 199.524L230.662 192.827C230.662 192.827 227.285 200.281 220.923 202.581L221.855 214.358C221.855 214.358 217.386 209.51 212.742 212.392C204.08 217.764 206.977 232.103 206.977 232.103C206.977 232.103 199.349 236.602 192.536 233.239C185.723 229.876 166.595 207.123 182.637 185.84C198.679 164.542 224.839 174.034 227.314 176.159V176.13Z" fill="#2D3F45"/>
<path d="M217.588 212.072C217.588 212.072 209.145 204.59 206.524 210.34C203.904 216.09 207.442 221.986 211.576 225.509C215.71 229.032 223.833 229.556 220.383 224.81" fill="#FFDCCC"/>
<path d="M217.588 212.072C217.588 212.072 209.145 204.59 206.524 210.34C203.904 216.09 207.442 221.986 211.576 225.509C215.71 229.032 223.833 229.556 220.383 224.81" stroke="#2D3F45" stroke-width="1.49048" stroke-linecap="round" stroke-linejoin="round"/>
<path d="M182.796 197.69C182.796 197.69 175.08 177.295 155.85 180.221C142.646 182.229 152.269 188.14 152.269 188.14C152.269 188.14 138.075 190.425 134.669 201.445C132.951 206.992 143.738 202.202 143.738 202.202C143.738 202.202 139.254 206.337 137.871 215.086C136.954 220.88 143.52 220.268 153.579 210.049C153.579 210.049 152.473 214.27 146.198 218.769C139.924 223.267 156.141 225.64 164.526 214.824C164.526 214.824 163.973 218.914 167.219 221.476C170.466 224.039 168.326 213.019 178.283 209.306C188.24 205.594 182.796 197.69 182.796 197.69Z" fill="#2D3F45"/>
<g opacity="0.2">
<path d="M231.419 179.944C231.419 179.944 240.342 183.51 238.275 191.386" stroke="white" stroke-width="1.49048" stroke-linecap="round" stroke-linejoin="round"/>
<path d="M229.146 181.298C229.146 181.298 230.005 191.663 218.781 195.695" stroke="white" stroke-width="1.49048" stroke-linecap="round" stroke-linejoin="round"/>
<path d="M221.213 179.129C221.213 179.129 193.685 173.277 181.893 195.695" stroke="white" stroke-width="1.49048" stroke-linecap="round" stroke-linejoin="round"/>
<path d="M215.652 203.323C215.652 203.323 195.752 210.66 180.773 203.323" stroke="white" stroke-width="1.49048" stroke-linecap="round" stroke-linejoin="round"/>
<path d="M200.645 226.222C200.645 226.222 188.183 220.821 181.895 210.558" stroke="white" stroke-width="1.49048" stroke-linecap="round" stroke-linejoin="round"/>
<path d="M175.008 195.695C175.008 195.695 161.353 186.306 150.537 197.428" stroke="white" stroke-width="1.49048" stroke-linecap="round" stroke-linejoin="round"/>
<path d="M172.141 201.46C172.141 201.46 160.597 200.95 159.388 210.558" stroke="white" stroke-width="1.49048" stroke-linecap="round" stroke-linejoin="round"/>
</g>
<path d="M260.546 383.341C260.546 383.341 235.842 398.306 205.621 394.084" stroke="#2D3F45" stroke-width="1.49048" stroke-linecap="round" stroke-linejoin="round"/>
<path d="M207.195 315.765C207.195 315.765 214.023 327.528 223.121 328.561" stroke="#2D3F45" stroke-width="1.49048" stroke-linecap="round" stroke-linejoin="round"/>
<path d="M196.902 332.273C196.902 332.273 204.879 342.259 211.066 341.866" stroke="#2D3F45" stroke-width="1.49048" stroke-linecap="round" stroke-linejoin="round"/>
<path d="M347.385 357.253C347.385 357.253 344.764 366.527 336.103 372.437" stroke="#2D3F45" stroke-width="1.49048" stroke-linecap="round" stroke-linejoin="round"/>
<path d="M277.914 329.973C277.914 329.973 267.171 335.592 258.713 328.561" stroke="#2D3F45" stroke-width="1.49048" stroke-linecap="round" stroke-linejoin="round"/>
</g>
<defs>
<filter id="filter0_d_1000_6152" x="0" y="0.566895" width="634" height="652.866" filterUnits="userSpaceOnUse" color-interpolation-filters="sRGB">
<feFlood flood-opacity="0" result="BackgroundImageFix"/>
<feColorMatrix in="SourceAlpha" type="matrix" values="0 0 0 0 0 0 0 0 0 0 0 0 0 0 0 0 0 0 127 0" result="hardAlpha"/>
<feOffset dy="4"/>
<feGaussianBlur stdDeviation="2"/>
<feComposite in2="hardAlpha" operator="out"/>
<feColorMatrix type="matrix" values="0 0 0 0 0 0 0 0 0 0 0 0 0 0 0 0 0 0 0.25 0"/>
<feBlend mode="normal" in2="BackgroundImageFix" result="effect1_dropShadow_1000_6152"/>
<feBlend mode="normal" in="SourceGraphic" in2="effect1_dropShadow_1000_6152" result="shape"/>
</filter>
<clipPath id="clip0_1000_6152">
<rect width="626" height="644.866" fill="white" transform="matrix(-1 0 0 1 630 0.566895)"/>
</clipPath>
</defs>
</svg>
